Commissioner-Black.ufo
<glyph name="parenleft" format="2">
  <advance width="882"/>
  <unicode hex="0028"/>
  <outline>
    <contour>
      <point x="588" y="-290" type="curve"/>
      <point x="852" y="-166" type="line"/>
      <point x="670" y="0"/>
      <point x="508" y="248"/>
      <point x="508" y="646" type="curve" smooth="yes"/>
      <point x="508" y="1044"/>
      <point x="670" y="1292"/>
      <point x="852" y="1458" type="curve"/>
      <point x="588" y="1582" type="line"/>
      <point x="278" y="1418"/>
      <point x="60" y="1086"/>
      <point x="60" y="646" type="curve" smooth="yes"/>
      <point x="60" y="208"/>
      <point x="278" y="-126"/>
    </contour>
  </outline>
</glyph>
<glyph name="asterisk" format="2">
  <advance width="1026"/>
  <unicode hex="002A"/>
  <outline>
    <contour>
      <point x="850" y="678" type="curve"/>
      <point x="986" y="914" type="line"/>
      <point x="842" y="976"/>
      <point x="696" y="1036"/>
      <point x="552" y="1098" type="curve"/>
      <point x="426" y="1192"/>
      <point x="302" y="1288"/>
      <point x="176" y="1382" type="curve"/>
      <point x="40" y="1146" type="line"/>
      <point x="184" y="1084"/>
      <point x="330" y="1024"/>
      <point x="474" y="962" type="curve"/>
      <point x="600" y="868"/>
      <point x="724" y="772"/>
    </contour>
    <contour>
      <point x="176" y="678" type="line"/>
      <point x="302" y="772"/>
      <point x="426" y="868"/>
      <point x="552" y="962" type="curve"/>
      <point x="696" y="1024"/>
      <point x="842" y="1084"/>
      <point x="986" y="1146" type="curve"/>
      <point x="850" y="1382" type="line"/>
      <point x="724" y="1288"/>
      <point x="600" y="1192"/>
      <point x="474" y="1098" type="curve"/>
      <point x="330" y="1036"/>
      <point x="184" y="976"/>
      <point x="40" y="914" type="curve"/>
    </contour>
    <contour>
      <point x="376" y="562" type="curve"/>
      <point x="650" y="562" type="line"/>
      <point x="630" y="718"/>
      <point x="612" y="874"/>
      <point x="592" y="1030" type="curve"/>
      <point x="612" y="1186"/>
      <point x="630" y="1342"/>
      <point x="650" y="1498" type="curve"/>
      <point x="376" y="1498" type="line"/>
      <point x="396" y="1342"/>
      <point x="414" y="1186"/>
      <point x="434" y="1030" type="curve"/>
      <point x="414" y="874"/>
      <point x="396" y="718"/>
    </contour>
  </outline>
</glyph>
<glyph name="hyphen" format="2">
  <advance width="860"/>
  <unicode hex="002D"/>
  <outline>
    <contour>
      <point x="80" y="418" type="line"/>
      <point x="206" y="418"/>
      <point x="326" y="418"/>
      <point x="430" y="418" type="curve"/>
      <point x="534" y="418"/>
      <point x="654" y="418"/>
      <point x="780" y="418" type="curve"/>
      <point x="780" y="798" type="line"/>
      <point x="654" y="798"/>
      <point x="534" y="798"/>
      <point x="430" y="798" type="curve"/>
      <point x="326" y="798"/>
      <point x="206" y="798"/>
      <point x="80" y="798" type="curve"/>
    </contour>
  </outline>
</glyph>
<glyph name="one" format="2">
  <advance width="960"/>
  <unicode hex="0031"/>
  <outline>
    <contour>
      <point x="124" y="780" type="line"/>
      <point x="284" y="850"/>
      <point x="442" y="920"/>
      <point x="602" y="990" type="curve"/>
      <point x="620" y="1392" type="line"/>
      <point x="420" y="1304"/>
      <point x="220" y="1216"/>
      <point x="20" y="1128" type="curve"/>
    </contour>
    <contour>
      <point x="380" y="0" type="curve"/>
      <point x="840" y="0" type="line"/>
      <point x="840" y="138"/>
      <point x="840" y="258"/>
      <point x="840" y="426" type="curve"/>
      <point x="840" y="898" type="line"/>
      <point x="840" y="1056"/>
      <point x="840" y="1214"/>
      <point x="840" y="1380" type="curve"/>
      <point x="620" y="1392" type="line"/>
      <point x="380" y="1194" type="line"/>
      <point x="380" y="1062"/>
      <point x="380" y="932"/>
      <point x="380" y="800" type="curve"/>
      <point x="380" y="426" type="line"/>
      <point x="380" y="258"/>
      <point x="380" y="138"/>
    </contour>
  </outline>
</glyph>
<glyph name="two" format="2">
  <advance width="1170"/>
  <unicode hex="0032"/>
  <outline>
    <contour>
      <point x="74" y="0" type="line"/>
      <point x="1100" y="0" type="line"/>
      <point x="1100" y="388" type="line"/>
      <point x="982" y="388"/>
      <point x="864" y="388"/>
      <point x="746" y="388" type="curve"/>
      <point x="530" y="388" type="line"/>
      <point x="582" y="302" type="line"/>
      <point x="752" y="420" type="line"/>
      <point x="994" y="588"/>
      <point x="1094" y="778"/>
      <point x="1094" y="976" type="curve" smooth="yes"/>
      <point x="1094" y="1250"/>
      <point x="914" y="1412"/>
      <point x="578" y="1412" type="curve" smooth="yes"/>
      <point x="382" y="1412"/>
      <point x="192" y="1362"/>
      <point x="66" y="1312" type="curve"/>
      <point x="102" y="882" type="line"/>
      <point x="218" y="960"/>
      <point x="354" y="1032"/>
      <point x="478" y="1032" type="curve"/>
      <point x="572" y="1032"/>
      <point x="620" y="992"/>
      <point x="620" y="912" type="curve" smooth="yes"/>
      <point x="620" y="768"/>
      <point x="484" y="634"/>
      <point x="264" y="456" type="curve"/>
      <point x="200" y="404"/>
      <point x="138" y="354"/>
      <point x="74" y="302" type="curve"/>
    </contour>
  </outline>
</glyph>
<glyph name="A" format="2">
  <advance width="1498"/>
  <unicode hex="0041"/>
  <anchor x="750" y="0" name="bottom"/>
  <anchor x="1478" y="0" name="ogonek"/>
  <anchor x="750" y="1426" name="top"/>
  <outline>
    <contour>
      <point x="24" y="0" type="curve"/>
      <point x="514" y="0" type="line"/>
      <point x="542" y="132"/>
      <point x="574" y="284"/>
      <point x="602" y="416" type="curve"/>
      <point x="730" y="1020" type="line"/>
      <point x="762" y="1020" type="line"/>
      <point x="888" y="408" type="line"/>
      <point x="914" y="282"/>
      <point x="944" y="136"/>
      <point x="972" y="0" type="curve"/>
      <point x="1478" y="0" type="line"/>
      <point x="1434" y="152"/>
      <point x="1384" y="324"/>
      <point x="1338" y="482" type="curve"/>
      <point x="1196" y="972" type="line"/>
      <point x="1146" y="1144"/>
      <point x="1108" y="1274"/>
      <point x="1064" y="1426" type="curve"/>
      <point x="438" y="1426" type="line"/>
      <point x="396" y="1282"/>
      <point x="358" y="1150"/>
      <point x="306" y="972" type="curve"/>
      <point x="164" y="482" type="line"/>
      <point x="120" y="330"/>
      <point x="68" y="152"/>
    </contour>
    <contour>
      <point x="454" y="232" type="line"/>
      <point x="1100" y="232" type="line"/>
      <point x="1054" y="592" type="line"/>
      <point x="510" y="592" type="line"/>
    </contour>
  </outline>
</glyph>
<glyph name="C" format="2">
  <advance width="1364"/>
  <unicode hex="0043"/>
  <anchor x="786" y="0" name="bottom"/>
  <anchor x="786" y="1426" name="top"/>
  <outline>
    <contour>
      <point x="824" y="-32" type="curve" smooth="yes"/>
      <point x="992" y="-32"/>
      <point x="1168" y="-6"/>
      <point x="1284" y="50" type="curve"/>
      <point x="1262" y="494" type="line"/>
      <point x="1132" y="394"/>
      <point x="1008" y="364"/>
      <point x="896" y="364" type="curve"/>
      <point x="664" y="364"/>
      <point x="560" y="528"/>
      <point x="560" y="710" type="curve" smooth="yes"/>
      <point x="560" y="942"/>
      <point x="690" y="1048"/>
      <point x="860" y="1048" type="curve"/>
      <point x="966" y="1048"/>
      <point x="1100" y="1008"/>
      <point x="1256" y="906" type="curve"/>
      <point x="1290" y="1356" type="line"/>
      <point x="1168" y="1416"/>
      <point x="978" y="1458"/>
      <point x="800" y="1458" type="curve" smooth="yes"/>
      <point x="306" y="1458"/>
      <point x="48" y="1134"/>
      <point x="48" y="708" type="curve" smooth="yes"/>
      <point x="48" y="250"/>
      <point x="348" y="-32"/>
    </contour>
  </outline>
</glyph>
<glyph name="G" format="2">
  <advance width="1450"/>
  <unicode hex="0047"/>
  <anchor x="786" y="0" name="bottom"/>
  <anchor x="786" y="1426" name="top"/>
  <outline>
    <contour>
      <point x="828" y="-30" type="curve" smooth="yes"/>
      <point x="1042" y="-30"/>
      <point x="1270" y="2"/>
      <point x="1358" y="36" type="curve"/>
      <point x="1300" y="462" type="line"/>
      <point x="1160" y="386"/>
      <point x="1054" y="354"/>
      <point x="874" y="354" type="curve"/>
      <point x="662" y="354"/>
      <point x="556" y="520"/>
      <point x="556" y="708" type="curve" smooth="yes"/>
      <point x="556" y="946"/>
      <point x="702" y="1048"/>
      <point x="868" y="1048" type="curve"/>
      <point x="978" y="1048"/>
      <point x="1132" y="1006"/>
      <point x="1304" y="906" type="curve"/>
      <point x="1338" y="1354" type="line"/>
      <point x="1214" y="1410"/>
      <point x="1026" y="1458"/>
      <point x="826" y="1458" type="curve" smooth="yes"/>
      <point x="324" y="1458"/>
      <point x="48" y="1152"/>
      <point x="48" y="710" type="curve" smooth="yes"/>
      <point x="48" y="270"/>
      <point x="342" y="-30"/>
    </contour>
    <contour>
      <point x="900" y="26" type="curve"/>
      <point x="1358" y="36" type="line"/>
      <point x="1358" y="182"/>
      <point x="1358" y="294"/>
      <point x="1358" y="414" type="curve"/>
      <point x="1358" y="552"/>
      <point x="1358" y="650"/>
      <point x="1358" y="762" type="curve"/>
      <point x="900" y="762" type="line"/>
      <point x="900" y="650"/>
      <point x="900" y="552"/>
      <point x="900" y="414" type="curve"/>
      <point x="900" y="294"/>
      <point x="900" y="182"/>
    </contour>
  </outline>
</glyph>
<glyph name="K" format="2">
  <advance width="1458"/>
  <unicode hex="004B"/>
  <anchor x="742" y="0" name="bottom"/>
  <anchor x="742" y="1426" name="top"/>
  <outline>
    <contour>
      <point x="860" y="0" type="curve"/>
      <point x="1442" y="0" type="line"/>
      <point x="1368" y="136"/>
      <point x="1240" y="368"/>
      <point x="1148" y="538" type="curve"/>
      <point x="944" y="912" type="line"/>
      <point x="954" y="696" type="line"/>
      <point x="1138" y="980" type="line"/>
      <point x="1236" y="1130"/>
      <point x="1328" y="1276"/>
      <point x="1426" y="1426" type="curve"/>
      <point x="874" y="1426" type="line"/>
      <point x="812" y="1302"/>
      <point x="770" y="1218"/>
      <point x="724" y="1126" type="curve"/>
      <point x="628" y="934" type="line"/>
      <point x="550" y="934" type="line"/>
      <point x="550" y="556" type="line"/>
      <point x="636" y="556" type="line"/>
      <point x="734" y="312" type="line"/>
      <point x="774" y="212"/>
      <point x="814" y="114"/>
    </contour>
    <contour>
      <point x="92" y="0" type="curve"/>
      <point x="582" y="0" type="line"/>
      <point x="582" y="148"/>
      <point x="582" y="276"/>
      <point x="582" y="458" type="curve"/>
      <point x="582" y="948" type="line"/>
      <point x="582" y="1138"/>
      <point x="582" y="1272"/>
      <point x="582" y="1426" type="curve"/>
      <point x="92" y="1426" type="line"/>
      <point x="92" y="1272"/>
      <point x="92" y="1138"/>
      <point x="92" y="948" type="curve"/>
      <point x="92" y="458" type="line"/>
      <point x="92" y="276"/>
      <point x="92" y="148"/>
    </contour>
  </outline>
</glyph>
<glyph name="N" format="2">
  <advance width="1492"/>
  <unicode hex="004E"/>
  <anchor x="748" y="0" name="bottom"/>
  <anchor x="748" y="1426" name="top"/>
  <outline>
    <contour>
      <point x="92" y="0" type="curve"/>
      <point x="550" y="0" type="line"/>
      <point x="550" y="148"/>
      <point x="550" y="276"/>
      <point x="550" y="458" type="curve"/>
      <point x="550" y="608" type="line"/>
      <point x="582" y="608" type="line"/>
      <point x="736" y="376" type="line"/>
      <point x="830" y="234"/>
      <point x="906" y="118"/>
      <point x="982" y="0" type="curve"/>
      <point x="1400" y="0" type="line"/>
      <point x="1400" y="148"/>
      <point x="1400" y="276"/>
      <point x="1400" y="458" type="curve"/>
      <point x="1400" y="948" type="line"/>
      <point x="1400" y="1138"/>
      <point x="1400" y="1272"/>
      <point x="1400" y="1426" type="curve"/>
      <point x="942" y="1426" type="line"/>
      <point x="942" y="1272"/>
      <point x="942" y="1138"/>
      <point x="942" y="948" type="curve"/>
      <point x="942" y="818" type="line"/>
      <point x="908" y="818" type="line"/>
      <point x="760" y="1048" type="line"/>
      <point x="680" y="1170"/>
      <point x="608" y="1282"/>
      <point x="514" y="1426" type="curve"/>
      <point x="92" y="1426" type="line"/>
      <point x="92" y="1272"/>
      <point x="92" y="1138"/>
      <point x="92" y="948" type="curve"/>
      <point x="92" y="458" type="line"/>
      <point x="92" y="276"/>
      <point x="92" y="148"/>
    </contour>
  </outline>
</glyph>
<glyph name="V" format="2">
  <advance width="1472"/>
  <unicode hex="0056"/>
  <anchor x="736" y="0" name="bottom"/>
  <anchor x="736" y="1426" name="top"/>
  <outline>
    <contour>
      <point x="404" y="0" type="curve"/>
      <point x="1058" y="0" type="line"/>
      <point x="1096" y="140"/>
      <point x="1140" y="310"/>
      <point x="1178" y="452" type="curve"/>
      <point x="1298" y="900" type="line"/>
      <point x="1340" y="1056"/>
      <point x="1392" y="1252"/>
      <point x="1438" y="1426" type="curve"/>
      <point x="908" y="1426" type="line"/>
      <point x="880" y="1266"/>
      <point x="850" y="1092"/>
      <point x="824" y="936" type="curve"/>
      <point x="748" y="494" type="line"/>
      <point x="716" y="494" type="line"/>
      <point x="652" y="934" type="line"/>
      <point x="630" y="1088"/>
      <point x="602" y="1272"/>
      <point x="580" y="1426" type="curve"/>
      <point x="34" y="1426" type="line"/>
      <point x="78" y="1258"/>
      <point x="130" y="1054"/>
      <point x="170" y="900" type="curve"/>
      <point x="286" y="452" type="line"/>
      <point x="322" y="314"/>
      <point x="368" y="142"/>
    </contour>
  </outline>
</glyph>
<glyph name="backslash" format="2">
  <advance width="928"/>
  <unicode hex="005C"/>
  <outline>
    <contour>
      <point x="502" y="0" type="curve"/>
      <point x="926" y="0" type="line"/>
      <point x="874" y="148"/>
      <point x="830" y="274"/>
      <point x="766" y="456" type="curve"/>
      <point x="592" y="952" type="line"/>
      <point x="526" y="1140"/>
      <point x="480" y="1272"/>
      <point x="426" y="1426" type="curve"/>
      <point x="2" y="1426" type="line"/>
      <point x="56" y="1272"/>
      <point x="102" y="1142"/>
      <point x="170" y="948" type="curve"/>
      <point x="342" y="456" type="line"/>
      <point x="406" y="274"/>
      <point x="450" y="148"/>
    </contour>
  </outline>
</glyph>
<glyph name="b" format="2">
  <advance width="1186"/>
  <unicode hex="0062"/>
  <outline>
    <contour>
      <point x="770" y="-32" type="curve" smooth="yes"/>
      <point x="1032" y="-32"/>
      <point x="1146" y="224"/>
      <point x="1146" y="502" type="curve" smooth="yes"/>
      <point x="1146" y="800"/>
      <point x="1024" y="1036"/>
      <point x="768" y="1036" type="curve" smooth="yes"/>
      <point x="668" y="1036"/>
      <point x="596" y="1000"/>
      <point x="546" y="912" type="curve"/>
      <point x="514" y="912" type="line"/>
      <point x="514" y="986" type="line"/>
      <point x="514" y="1178"/>
      <point x="514" y="1346"/>
      <point x="514" y="1500" type="curve"/>
      <point x="70" y="1468" type="line"/>
      <point x="70" y="1302"/>
      <point x="70" y="1144"/>
      <point x="70" y="986" type="curve"/>
      <point x="70" y="426" type="line"/>
      <point x="70" y="258"/>
      <point x="70" y="138"/>
      <point x="70" y="0" type="curve"/>
      <point x="414" y="0" type="line"/>
      <point x="466" y="114" type="line"/>
      <point x="492" y="114" type="line"/>
      <point x="556" y="26"/>
      <point x="642" y="-32"/>
    </contour>
    <contour>
      <point x="588" y="338" type="curve"/>
      <point x="550" y="338"/>
      <point x="524" y="364"/>
      <point x="514" y="394" type="curve"/>
      <point x="514" y="624" type="line"/>
      <point x="530" y="644"/>
      <point x="558" y="660"/>
      <point x="588" y="660" type="curve"/>
      <point x="656" y="660"/>
      <point x="692" y="584"/>
      <point x="692" y="498" type="curve" smooth="yes"/>
      <point x="692" y="418"/>
      <point x="654" y="338"/>
    </contour>
  </outline>
</glyph>
<glyph name="c" format="2">
  <advance width="948"/>
  <unicode hex="0063"/>
  <anchor x="548" y="0" name="bottom"/>
  <anchor x="548" y="1004" name="top"/>
  <outline>
    <contour>
      <point x="594" y="-24" type="curve" smooth="yes"/>
      <point x="736" y="-24"/>
      <point x="828" y="-10"/>
      <point x="902" y="14" type="curve"/>
      <point x="886" y="388" type="line"/>
      <point x="830" y="350"/>
      <point x="768" y="332"/>
      <point x="704" y="332" type="curve"/>
      <point x="570" y="332"/>
      <point x="488" y="400"/>
      <point x="488" y="512" type="curve" smooth="yes"/>
      <point x="488" y="606"/>
      <point x="548" y="666"/>
      <point x="640" y="666" type="curve"/>
      <point x="686" y="666"/>
      <point x="762" y="658"/>
      <point x="878" y="592" type="curve"/>
      <point x="908" y="966" type="line"/>
      <point x="824" y="1010"/>
      <point x="696" y="1034"/>
      <point x="574" y="1034" type="curve" smooth="yes"/>
      <point x="206" y="1034"/>
      <point x="36" y="808"/>
      <point x="36" y="498" type="curve" smooth="yes"/>
      <point x="36" y="190"/>
      <point x="236" y="-24"/>
    </contour>
  </outline>
</glyph>
<glyph name="f" format="2">
  <advance width="850"/>
  <unicode hex="0066"/>
  <outline>
    <contour>
      <point x="164" y="0" type="curve"/>
      <point x="608" y="0" type="line"/>
      <point x="608" y="138"/>
      <point x="608" y="258"/>
      <point x="608" y="426" type="curve"/>
      <point x="608" y="940" type="line"/>
      <point x="588" y="1004" type="line"/>
      <point x="588" y="1020"/>
      <point x="588" y="1046"/>
      <point x="588" y="1056" type="curve" smooth="yes"/>
      <point x="588" y="1118"/>
      <point x="628" y="1140"/>
      <point x="684" y="1140" type="curve" smooth="yes"/>
      <point x="728" y="1140"/>
      <point x="780" y="1126"/>
      <point x="832" y="1106" type="curve"/>
      <point x="864" y="1460" type="line"/>
      <point x="818" y="1478"/>
      <point x="722" y="1498"/>
      <point x="608" y="1498" type="curve" smooth="yes"/>
      <point x="382" y="1498"/>
      <point x="164" y="1420"/>
      <point x="164" y="1068" type="curve" smooth="yes"/>
      <point x="164" y="942"/>
      <point x="164" y="678"/>
      <point x="164" y="526" type="curve"/>
      <point x="164" y="426" type="line"/>
      <point x="164" y="258"/>
      <point x="164" y="138"/>
    </contour>
    <contour>
      <point x="24" y="678" type="line"/>
      <point x="290" y="678" type="line"/>
      <point x="494" y="678" type="line"/>
      <point x="600" y="678"/>
      <point x="698" y="678"/>
      <point x="814" y="678" type="curve"/>
      <point x="814" y="1004" type="line"/>
      <point x="24" y="1004" type="line"/>
    </contour>
  </outline>
</glyph>
<glyph name="h" format="2">
  <advance width="1168"/>
  <unicode hex="0068"/>
  <guideline x="147" y="743" angle="4.4708"/>
  <anchor x="590" y="0" name="bottom"/>
  <anchor x="590" y="818" name="center"/>
  <anchor x="546" y="1466" name="top"/>
  <outline>
    <contour>
      <point x="70" y="0" type="curve"/>
      <point x="514" y="0" type="line"/>
      <point x="514" y="138"/>
      <point x="514" y="258"/>
      <point x="514" y="400" type="curve"/>
      <point x="514" y="582" type="line"/>
      <point x="536" y="612"/>
      <point x="566" y="636"/>
      <point x="600" y="636" type="curve" smooth="yes"/>
      <point x="648" y="636"/>
      <point x="664" y="600"/>
      <point x="664" y="530" type="curve"/>
      <point x="664" y="400" type="line"/>
      <point x="664" y="258"/>
      <point x="664" y="138"/>
      <point x="664" y="0" type="curve"/>
      <point x="1108" y="0" type="line"/>
      <point x="1108" y="138"/>
      <point x="1108" y="258"/>
      <point x="1108" y="426" type="curve"/>
      <point x="1108" y="510"/>
      <point x="1108" y="594"/>
      <point x="1108" y="684" type="curve" smooth="yes"/>
      <point x="1108" y="922"/>
      <point x="992" y="1036"/>
      <point x="804" y="1036" type="curve" smooth="yes"/>
      <point x="688" y="1036"/>
      <point x="608" y="980"/>
      <point x="548" y="894" type="curve"/>
      <point x="514" y="894" type="line"/>
      <point x="514" y="986" type="line"/>
      <point x="514" y="1178"/>
      <point x="514" y="1346"/>
      <point x="514" y="1500" type="curve"/>
      <point x="70" y="1468" type="line"/>
      <point x="70" y="1302"/>
      <point x="70" y="1144"/>
      <point x="70" y="986" type="curve"/>
      <point x="70" y="426" type="line"/>
      <point x="70" y="258"/>
      <point x="70" y="138"/>
    </contour>
  </outline>
</glyph>
<glyph name="k" format="2">
  <advance width="1218"/>
  <unicode hex="006B"/>
  <anchor x="608" y="0" name="bottom"/>
  <anchor x="608" y="1466" name="top"/>
  <outline>
    <contour>
      <point x="688" y="0" type="curve"/>
      <point x="1218" y="0" type="line"/>
      <point x="1146" y="126"/>
      <point x="1072" y="254"/>
      <point x="1000" y="380" type="curve"/>
      <point x="848" y="642" type="line"/>
      <point x="870" y="452" type="line"/>
      <point x="980" y="634" type="line"/>
      <point x="1056" y="758"/>
      <point x="1130" y="880"/>
      <point x="1206" y="1004" type="curve"/>
      <point x="702" y="1004" type="line"/>
      <point x="672" y="924"/>
      <point x="642" y="846"/>
      <point x="612" y="766" type="curve"/>
      <point x="562" y="636" type="line"/>
      <point x="482" y="636" type="line"/>
      <point x="482" y="352" type="line"/>
      <point x="562" y="352" type="line"/>
      <point x="610" y="216" type="line"/>
      <point x="636" y="144"/>
      <point x="662" y="72"/>
    </contour>
    <contour>
      <point x="70" y="0" type="curve"/>
      <point x="514" y="0" type="line"/>
      <point x="514" y="114"/>
      <point x="514" y="214"/>
      <point x="514" y="332" type="curve"/>
      <point x="514" y="986" type="line"/>
      <point x="514" y="1178"/>
      <point x="514" y="1346"/>
      <point x="514" y="1500" type="curve"/>
      <point x="70" y="1468" type="line"/>
      <point x="70" y="1302"/>
      <point x="70" y="1144"/>
      <point x="70" y="986" type="curve"/>
      <point x="70" y="426" type="line"/>
      <point x="70" y="258"/>
      <point x="70" y="138"/>
    </contour>
  </outline>
</glyph>
<glyph name="o" format="2">
  <advance width="1196"/>
  <unicode hex="006F"/>
  <anchor x="598" y="0" name="bottom"/>
  <anchor x="598" y="502" name="center"/>
  <anchor x="810" y="0" name="ogonek"/>
  <anchor x="598" y="1004" name="top"/>
  <anchor x="1036" y="1004" name="topright"/>
  <outline>
    <contour>
      <point x="604" y="-32" type="curve" smooth="yes"/>
      <point x="970" y="-32"/>
      <point x="1160" y="194"/>
      <point x="1160" y="502" type="curve" smooth="yes"/>
      <point x="1160" y="800"/>
      <point x="986" y="1036"/>
      <point x="594" y="1036" type="curve" smooth="yes"/>
      <point x="212" y="1036"/>
      <point x="36" y="802"/>
      <point x="36" y="502" type="curve" smooth="yes"/>
      <point x="36" y="222"/>
      <point x="200" y="-32"/>
    </contour>
    <contour>
      <point x="602" y="322" type="curve"/>
      <point x="530" y="322"/>
      <point x="488" y="406"/>
      <point x="488" y="502" type="curve" smooth="yes"/>
      <point x="488" y="606"/>
      <point x="528" y="682"/>
      <point x="600" y="682" type="curve"/>
      <point x="660" y="682"/>
      <point x="708" y="624"/>
      <point x="708" y="502" type="curve" smooth="yes"/>
      <point x="708" y="406"/>
      <point x="674" y="322"/>
    </contour>
  </outline>
</glyph>
<glyph name="p" format="2">
  <advance width="1186"/>
  <unicode hex="0070"/>
  <outline>
    <contour>
      <point x="70" y="-396" type="curve"/>
      <point x="514" y="-384" type="line"/>
      <point x="514" y="-246"/>
      <point x="514" y="-126"/>
      <point x="514" y="16" type="curve"/>
      <point x="514" y="90" type="line"/>
      <point x="536" y="90" type="line"/>
      <point x="590" y="16"/>
      <point x="662" y="-32"/>
      <point x="770" y="-32" type="curve" smooth="yes"/>
      <point x="1032" y="-32"/>
      <point x="1146" y="224"/>
      <point x="1146" y="502" type="curve" smooth="yes"/>
      <point x="1146" y="800"/>
      <point x="1024" y="1036"/>
      <point x="768" y="1036" type="curve" smooth="yes"/>
      <point x="650" y="1036"/>
      <point x="566" y="990"/>
      <point x="506" y="880" type="curve"/>
      <point x="474" y="880" type="line"/>
      <point x="460" y="1024" type="line"/>
      <point x="70" y="1004" type="line"/>
      <point x="70" y="838"/>
      <point x="70" y="684"/>
      <point x="70" y="526" type="curve"/>
      <point x="70" y="42" type="line"/>
      <point x="70" y="-126"/>
      <point x="70" y="-258"/>
    </contour>
    <contour>
      <point x="588" y="338" type="curve"/>
      <point x="550" y="338"/>
      <point x="524" y="364"/>
      <point x="514" y="394" type="curve"/>
      <point x="514" y="624" type="line"/>
      <point x="530" y="644"/>
      <point x="558" y="660"/>
      <point x="588" y="660" type="curve"/>
      <point x="656" y="660"/>
      <point x="692" y="584"/>
      <point x="692" y="498" type="curve" smooth="yes"/>
      <point x="692" y="418"/>
      <point x="654" y="338"/>
    </contour>
  </outline>
</glyph>
<glyph name="q" format="2">
  <advance width="1176"/>
  <unicode hex="0071"/>
  <outline>
    <contour>
      <point x="672" y="-396" type="curve"/>
      <point x="1116" y="-384" type="line"/>
      <point x="1116" y="-246"/>
      <point x="1116" y="-126"/>
      <point x="1116" y="42" type="curve"/>
      <point x="1116" y="526" type="line"/>
      <point x="1116" y="690"/>
      <point x="1116" y="852"/>
      <point x="1116" y="1024" type="curve"/>
      <point x="726" y="1004" type="line"/>
      <point x="712" y="880" type="line"/>
      <point x="680" y="880" type="line"/>
      <point x="620" y="990"/>
      <point x="536" y="1036"/>
      <point x="418" y="1036" type="curve" smooth="yes"/>
      <point x="162" y="1036"/>
      <point x="40" y="800"/>
      <point x="40" y="502" type="curve" smooth="yes"/>
      <point x="40" y="224"/>
      <point x="154" y="-32"/>
      <point x="416" y="-32" type="curve" smooth="yes"/>
      <point x="524" y="-32"/>
      <point x="596" y="16"/>
      <point x="650" y="90" type="curve"/>
      <point x="672" y="90" type="line"/>
      <point x="672" y="16" type="line"/>
      <point x="672" y="-126"/>
      <point x="672" y="-258"/>
    </contour>
    <contour>
      <point x="598" y="338" type="curve"/>
      <point x="532" y="338"/>
      <point x="494" y="418"/>
      <point x="494" y="498" type="curve" smooth="yes"/>
      <point x="494" y="584"/>
      <point x="530" y="660"/>
      <point x="598" y="660" type="curve"/>
      <point x="628" y="660"/>
      <point x="656" y="644"/>
      <point x="672" y="624" type="curve"/>
      <point x="672" y="394" type="line"/>
      <point x="662" y="364"/>
      <point x="636" y="338"/>
    </contour>
  </outline>
</glyph>
<glyph name="u" format="2">
  <advance width="1168"/>
  <unicode hex="0075"/>
  <anchor x="580" y="0" name="bottom"/>
  <anchor x="1098" y="0" name="ogonek"/>
  <anchor x="580" y="1004" name="top"/>
  <anchor x="1150" y="1004" name="topright"/>
  <outline>
    <contour>
      <point x="364" y="-32" type="curve" smooth="yes"/>
      <point x="506" y="-32"/>
      <point x="604" y="36"/>
      <point x="676" y="142" type="curve"/>
      <point x="710" y="142" type="line"/>
      <point x="730" y="0" type="line"/>
      <point x="1098" y="0" type="line"/>
      <point x="1098" y="138"/>
      <point x="1098" y="258"/>
      <point x="1098" y="426" type="curve"/>
      <point x="1098" y="546" type="line"/>
      <point x="1098" y="746"/>
      <point x="1098" y="866"/>
      <point x="1098" y="1004" type="curve"/>
      <point x="654" y="1004" type="line"/>
      <point x="654" y="866"/>
      <point x="654" y="746"/>
      <point x="654" y="606" type="curve"/>
      <point x="654" y="412" type="line"/>
      <point x="632" y="382"/>
      <point x="602" y="358"/>
      <point x="568" y="358" type="curve" smooth="yes"/>
      <point x="520" y="358"/>
      <point x="504" y="394"/>
      <point x="504" y="464" type="curve"/>
      <point x="504" y="606" type="line"/>
      <point x="504" y="746"/>
      <point x="504" y="878"/>
      <point x="504" y="1016" type="curve"/>
      <point x="60" y="1004" type="line"/>
      <point x="60" y="866"/>
      <point x="60" y="766"/>
      <point x="60" y="546" type="curve"/>
      <point x="60" y="468"/>
      <point x="60" y="410"/>
      <point x="60" y="320" type="curve" smooth="yes"/>
      <point x="60" y="82"/>
      <point x="176" y="-32"/>
    </contour>
  </outline>
</glyph>
<glyph name="w" format="2">
  <advance width="1726"/>
  <unicode hex="0077"/>
  <anchor x="854" y="0" name="bottom"/>
  <anchor x="854" y="1004" name="top"/>
  <outline>
    <contour>
      <point x="300" y="0" type="curve"/>
      <point x="766" y="0" type="line"/>
      <point x="778" y="84"/>
      <point x="792" y="176"/>
      <point x="804" y="258" type="curve"/>
      <point x="828" y="418" type="line"/>
      <point x="856" y="418" type="line"/>
      <point x="882" y="260" type="line"/>
      <point x="896" y="178"/>
      <point x="912" y="84"/>
      <point x="926" y="0" type="curve"/>
      <point x="1412" y="0" type="line"/>
      <point x="1450" y="124"/>
      <point x="1490" y="254"/>
      <point x="1530" y="384" type="curve"/>
      <point x="1584" y="560" type="line"/>
      <point x="1630" y="708"/>
      <point x="1674" y="854"/>
      <point x="1720" y="1004" type="curve"/>
      <point x="1240" y="1004" type="line"/>
      <point x="1228" y="906"/>
      <point x="1212" y="780"/>
      <point x="1198" y="670" type="curve"/>
      <point x="1170" y="454" type="line"/>
      <point x="1140" y="454" type="line"/>
      <point x="1112" y="666" type="line"/>
      <point x="1098" y="778"/>
      <point x="1082" y="896"/>
      <point x="1068" y="1004" type="curve"/>
      <point x="662" y="1004" type="line"/>
      <point x="648" y="892"/>
      <point x="632" y="780"/>
      <point x="618" y="666" type="curve"/>
      <point x="590" y="454" type="line"/>
      <point x="560" y="454" type="line"/>
      <point x="530" y="666" type="line"/>
      <point x="514" y="778"/>
      <point x="496" y="904"/>
      <point x="480" y="1016" type="curve"/>
      <point x="6" y="1004" type="line"/>
      <point x="50" y="854"/>
      <point x="92" y="710"/>
      <point x="136" y="560" type="curve"/>
      <point x="188" y="382" type="line"/>
      <point x="226" y="254"/>
      <point x="264" y="126"/>
    </contour>
  </outline>
</glyph>
<glyph name="y" format="2">
  <advance width="1166"/>
  <unicode hex="0079"/>
  <anchor x="982" y="0" name="bottom"/>
  <anchor x="582" y="1004" name="top"/>
  <outline>
    <contour>
      <point x="182" y="-396" type="curve"/>
      <point x="638" y="-384" type="line"/>
      <point x="692" y="-240"/>
      <point x="756" y="-70"/>
      <point x="852" y="184" type="curve"/>
      <point x="958" y="466" type="line"/>
      <point x="1052" y="718"/>
      <point x="1100" y="842"/>
      <point x="1160" y="1004" type="curve"/>
      <point x="682" y="1004" type="line"/>
      <point x="664" y="892"/>
      <point x="648" y="786"/>
      <point x="630" y="674" type="curve"/>
      <point x="596" y="460" type="line"/>
      <point x="564" y="460" type="line"/>
      <point x="534" y="676" type="line"/>
      <point x="518" y="792"/>
      <point x="502" y="900"/>
      <point x="486" y="1016" type="curve"/>
      <point x="6" y="1004" type="line"/>
      <point x="54" y="860"/>
      <point x="106" y="708"/>
      <point x="154" y="564" type="curve"/>
      <point x="214" y="384" type="line"/>
      <point x="260" y="250"/>
      <point x="308" y="108"/>
      <point x="354" y="-30" type="curve"/>
      <point x="354" y="42" type="line"/>
      <point x="300" y="-100"/>
      <point x="236" y="-254"/>
    </contour>
  </outline>
</glyph>
<glyph name="asciitilde" format="2">
  <advance width="1180"/>
  <unicode hex="007E"/>
  <outline>
    <contour>
      <point x="824" y="378" type="curve" smooth="yes"/>
      <point x="996" y="378"/>
      <point x="1100" y="548"/>
      <point x="1100" y="820" type="curve"/>
      <point x="850" y="820" type="line"/>
      <point x="838" y="784"/>
      <point x="820" y="754"/>
      <point x="774" y="754" type="curve"/>
      <point x="688" y="754"/>
      <point x="564" y="864"/>
      <point x="372" y="864" type="curve" smooth="yes"/>
      <point x="188" y="864"/>
      <point x="80" y="692"/>
      <point x="80" y="422" type="curve"/>
      <point x="330" y="422" type="line"/>
      <point x="342" y="458"/>
      <point x="366" y="488"/>
      <point x="416" y="488" type="curve"/>
      <point x="492" y="488"/>
      <point x="626" y="378"/>
    </contour>
  </outline>
</glyph>
<glyph name="sterling" format="2">
  <advance width="1246"/>
  <unicode hex="00A3"/>
  <outline>
    <contour>
      <point x="70" y="0" type="line"/>
      <point x="1186" y="0" type="line"/>
      <point x="1186" y="400" type="line"/>
      <point x="1032" y="400"/>
      <point x="898" y="400"/>
      <point x="666" y="400" type="curve"/>
      <point x="412" y="400" type="line"/>
      <point x="442" y="340" type="line"/>
      <point x="636" y="442"/>
      <point x="678" y="540"/>
      <point x="678" y="660" type="curve" smooth="yes"/>
      <point x="678" y="838" type="line" smooth="yes"/>
      <point x="678" y="964"/>
      <point x="742" y="1026"/>
      <point x="846" y="1026" type="curve"/>
      <point x="898" y="1026"/>
      <point x="980" y="1020"/>
      <point x="1106" y="960" type="curve"/>
      <point x="1144" y="1344" type="line"/>
      <point x="1062" y="1388"/>
      <point x="932" y="1412"/>
      <point x="806" y="1412" type="curve" smooth="yes"/>
      <point x="386" y="1412"/>
      <point x="208" y="1208"/>
      <point x="208" y="852" type="curve" smooth="yes"/>
      <point x="208" y="736"/>
      <point x="208" y="622"/>
      <point x="208" y="508" type="curve"/>
      <point x="208" y="412"/>
      <point x="184" y="314"/>
      <point x="70" y="228" type="curve"/>
    </contour>
    <contour>
      <point x="86" y="564" type="line"/>
      <point x="236" y="564"/>
      <point x="378" y="564"/>
      <point x="502" y="564" type="curve"/>
      <point x="590" y="564" type="line"/>
      <point x="714" y="564"/>
      <point x="856" y="564"/>
      <point x="1006" y="564" type="curve"/>
      <point x="1006" y="864" type="line"/>
      <point x="856" y="864"/>
      <point x="714" y="864"/>
      <point x="590" y="864" type="curve"/>
      <point x="502" y="864" type="line"/>
      <point x="378" y="864"/>
      <point x="236" y="864"/>
      <point x="86" y="864" type="curve"/>
    </contour>
  </outline>
</glyph>
<glyph name="yen" format="2">
  <advance width="1358"/>
  <unicode hex="00A5"/>
  <outline>
    <contour>
      <point x="458" y="440" type="line"/>
      <point x="908" y="440" type="line"/>
      <point x="1166" y="1012" type="line"/>
      <point x="1220" y="1132"/>
      <point x="1278" y="1260"/>
      <point x="1332" y="1380" type="curve"/>
      <point x="820" y="1380" type="line"/>
      <point x="788" y="1254"/>
      <point x="772" y="1192"/>
      <point x="746" y="1090" type="curve"/>
      <point x="702" y="920" type="line"/>
      <point x="666" y="920" type="line"/>
      <point x="626" y="1088" type="line"/>
      <point x="602" y="1188"/>
      <point x="588" y="1246"/>
      <point x="556" y="1380" type="curve"/>
      <point x="26" y="1380" type="line"/>
      <point x="112" y="1192"/>
      <point x="146" y="1118"/>
      <point x="196" y="1010" type="curve"/>
    </contour>
    <contour>
      <point x="450" y="0" type="curve"/>
      <point x="918" y="0" type="line"/>
      <point x="918" y="142"/>
      <point x="918" y="266"/>
      <point x="918" y="440" type="curve"/>
      <point x="918" y="822" type="line"/>
      <point x="450" y="822" type="line"/>
      <point x="450" y="440" type="line"/>
      <point x="450" y="266"/>
      <point x="450" y="142"/>
    </contour>
    <contour>
      <point x="122" y="194" type="line"/>
      <point x="272" y="194"/>
      <point x="414" y="194"/>
      <point x="538" y="194" type="curve"/>
      <point x="826" y="194" type="line"/>
      <point x="950" y="194"/>
      <point x="1092" y="194"/>
      <point x="1242" y="194" type="curve"/>
      <point x="1242" y="454" type="line"/>
      <point x="1092" y="454"/>
      <point x="950" y="454"/>
      <point x="826" y="454" type="curve"/>
      <point x="538" y="454" type="line"/>
      <point x="414" y="454"/>
      <point x="272" y="454"/>
      <point x="122" y="454" type="curve"/>
    </contour>
    <contour>
      <point x="122" y="552" type="line"/>
      <point x="272" y="552"/>
      <point x="414" y="552"/>
      <point x="538" y="552" type="curve"/>
      <point x="826" y="552" type="line"/>
      <point x="950" y="552"/>
      <point x="1092" y="552"/>
      <point x="1242" y="552" type="curve"/>
      <point x="1242" y="812" type="line"/>
      <point x="1092" y="812"/>
      <point x="950" y="812"/>
      <point x="826" y="812" type="curve"/>
      <point x="538" y="812" type="line"/>
      <point x="414" y="812"/>
      <point x="272" y="812"/>
      <point x="122" y="812" type="curve"/>
    </contour>
  </outline>
</glyph>
<glyph name="brokenbar" format="2">
  <advance width="604"/>
  <unicode hex="00A6"/>
  <outline>
    <contour>
      <point x="112" y="712" type="line"/>
      <point x="492" y="712" type="line"/>
      <point x="492" y="894" type="line"/>
      <point x="492" y="1110"/>
      <point x="492" y="1316"/>
      <point x="492" y="1552" type="curve"/>
      <point x="112" y="1552" type="line"/>
      <point x="112" y="1316"/>
      <point x="112" y="1110"/>
      <point x="112" y="894" type="curve"/>
    </contour>
    <contour>
      <point x="112" y="-328" type="curve"/>
      <point x="492" y="-328" type="line"/>
      <point x="492" y="-92"/>
      <point x="492" y="114"/>
      <point x="492" y="330" type="curve"/>
      <point x="492" y="512" type="line"/>
      <point x="112" y="512" type="line"/>
      <point x="112" y="330" type="line"/>
      <point x="112" y="114"/>
      <point x="112" y="-92"/>
    </contour>
  </outline>
</glyph>
<glyph name="ordfeminine" format="2">
  <advance width="828"/>
  <unicode hex="00AA"/>
  <outline>
    <contour>
      <point x="252" y="652" type="curve" smooth="yes"/>
      <point x="356" y="652"/>
      <point x="426" y="710"/>
      <point x="466" y="784" type="curve"/>
      <point x="486" y="784" type="line"/>
      <point x="508" y="672" type="line"/>
      <point x="768" y="672" type="line"/>
      <point x="768" y="776"/>
      <point x="768" y="872"/>
      <point x="768" y="956" type="curve"/>
      <point x="768" y="994" type="line" smooth="yes"/>
      <point x="768" y="1044"/>
      <point x="768" y="1126"/>
      <point x="768" y="1178" type="curve" smooth="yes"/>
      <point x="768" y="1376"/>
      <point x="650" y="1458"/>
      <point x="450" y="1458" type="curve" smooth="yes"/>
      <point x="296" y="1458"/>
      <point x="164" y="1424"/>
      <point x="86" y="1400" type="curve"/>
      <point x="100" y="1134" type="line"/>
      <point x="186" y="1178"/>
      <point x="288" y="1198"/>
      <point x="356" y="1198" type="curve" smooth="yes"/>
      <point x="454" y="1198"/>
      <point x="484" y="1172"/>
      <point x="482" y="1140" type="curve"/>
      <point x="284" y="1102" type="line" smooth="yes"/>
      <point x="218" y="1090"/>
      <point x="52" y="1048"/>
      <point x="52" y="864" type="curve" smooth="yes"/>
      <point x="52" y="750"/>
      <point x="116" y="652"/>
    </contour>
    <contour>
      <point x="402" y="894" type="curve" smooth="yes"/>
      <point x="378" y="894"/>
      <point x="350" y="912"/>
      <point x="350" y="950" type="curve" smooth="yes"/>
      <point x="350" y="990"/>
      <point x="380" y="1008"/>
      <point x="408" y="1018" type="curve" smooth="yes"/>
      <point x="448" y="1032"/>
      <point x="458" y="1038"/>
      <point x="474" y="1054" type="curve"/>
      <point x="474" y="942" type="line"/>
      <point x="454" y="912"/>
      <point x="428" y="894"/>
    </contour>
  </outline>
</glyph>
<glyph name="degree" format="2">
  <advance width="1086"/>
  <unicode hex="00B0"/>
  <outline>
    <contour>
      <point x="542" y="562" type="curve" smooth="yes"/>
      <point x="836" y="562"/>
      <point x="1026" y="718"/>
      <point x="1026" y="992" type="curve" smooth="yes"/>
      <point x="1026" y="1230"/>
      <point x="836" y="1412"/>
      <point x="544" y="1412" type="curve" smooth="yes"/>
      <point x="250" y="1412"/>
      <point x="60" y="1230"/>
      <point x="60" y="992" type="curve" smooth="yes"/>
      <point x="60" y="718"/>
      <point x="250" y="562"/>
    </contour>
    <contour>
      <point x="542" y="860" type="curve"/>
      <point x="466" y="860"/>
      <point x="422" y="910"/>
      <point x="422" y="988" type="curve" smooth="yes"/>
      <point x="422" y="1056"/>
      <point x="466" y="1114"/>
      <point x="544" y="1114" type="curve"/>
      <point x="620" y="1114"/>
      <point x="664" y="1050"/>
      <point x="664" y="988" type="curve" smooth="yes"/>
      <point x="664" y="910"/>
      <point x="620" y="860"/>
    </contour>
  </outline>
</glyph>
<glyph name="Oslash" format="2">
  <advance width="1622"/>
  <unicode hex="00D8"/>
  <anchor x="812" y="0" name="bottom"/>
  <anchor x="812" y="714" name="center"/>
  <anchor x="1062" y="0" name="ogonek"/>
  <anchor x="812" y="1426" name="top"/>
  <anchor x="48" y="1426" name="topleft"/>
  <anchor x="1392" y="1426" name="topright"/>
  <outline>
    <contour>
      <point x="818" y="-32" type="curve" smooth="yes"/>
      <point x="1322" y="-32"/>
      <point x="1574" y="284"/>
      <point x="1574" y="712" type="curve" smooth="yes"/>
      <point x="1574" y="1124"/>
      <point x="1336" y="1458"/>
      <point x="806" y="1458" type="curve" smooth="yes"/>
      <point x="282" y="1458"/>
      <point x="48" y="1126"/>
      <point x="48" y="710" type="curve" smooth="yes"/>
      <point x="48" y="322"/>
      <point x="268" y="-32"/>
    </contour>
    <contour>
      <point x="812" y="364" type="curve"/>
      <point x="654" y="364"/>
      <point x="560" y="520"/>
      <point x="560" y="712" type="curve" smooth="yes"/>
      <point x="560" y="910"/>
      <point x="660" y="1062"/>
      <point x="812" y="1062" type="curve"/>
      <point x="958" y="1062"/>
      <point x="1062" y="910"/>
      <point x="1062" y="712" type="curve" smooth="yes"/>
      <point x="1062" y="520"/>
      <point x="968" y="364"/>
    </contour>
    <contour>
      <point x="314" y="-176" type="line"/>
      <point x="446" y="-4"/>
      <point x="568" y="156"/>
      <point x="712" y="344" type="curve"/>
      <point x="1110" y="866" type="line"/>
      <point x="1256" y="1056"/>
      <point x="1374" y="1212"/>
      <point x="1510" y="1390" type="curve"/>
      <point x="1292" y="1554" type="line"/>
      <point x="1158" y="1378"/>
      <point x="1038" y="1222"/>
      <point x="892" y="1030" type="curve"/>
      <point x="500" y="518" type="line"/>
      <point x="358" y="332"/>
      <point x="244" y="184"/>
      <point x="104" y="0" type="curve"/>
    </contour>
  </outline>
</glyph>
<glyph name="eth" format="2">
  <advance width="1196"/>
  <unicode hex="00F0"/>
  <outline>
    <contour>
      <point x="604" y="-32" type="curve" smooth="yes"/>
      <point x="1014" y="-32"/>
      <point x="1160" y="228"/>
      <point x="1160" y="606" type="curve" smooth="yes"/>
      <point x="1160" y="894"/>
      <point x="1040" y="1130"/>
      <point x="846" y="1312" type="curve"/>
      <point x="760" y="1392"/>
      <point x="662" y="1460"/>
      <point x="552" y="1520" type="curve"/>
      <point x="198" y="1396" type="line"/>
      <point x="324" y="1318"/>
      <point x="428" y="1232"/>
      <point x="508" y="1142" type="curve"/>
      <point x="638" y="994"/>
      <point x="708" y="834"/>
      <point x="708" y="658" type="curve" smooth="yes"/>
      <point x="708" y="424"/>
      <point x="674" y="322"/>
      <point x="602" y="322" type="curve"/>
      <point x="530" y="322"/>
      <point x="488" y="392"/>
      <point x="488" y="458" type="curve" smooth="yes"/>
      <point x="488" y="522"/>
      <point x="528" y="588"/>
      <point x="600" y="588" type="curve"/>
      <point x="628" y="588"/>
      <point x="684" y="578"/>
      <point x="736" y="520" type="curve"/>
      <point x="828" y="634"/>
      <point x="802" y="752"/>
      <point x="694" y="866" type="curve"/>
      <point x="652" y="828" type="line"/>
      <point x="604" y="864"/>
      <point x="492" y="894"/>
      <point x="404" y="894" type="curve" smooth="yes"/>
      <point x="196" y="894"/>
      <point x="36" y="752"/>
      <point x="36" y="478" type="curve" smooth="yes"/>
      <point x="36" y="210"/>
      <point x="200" y="-32"/>
    </contour>
    <contour>
      <point x="282" y="942" type="line"/>
      <point x="408" y="988"/>
      <point x="534" y="1034"/>
      <point x="644" y="1074" type="curve"/>
      <point x="742" y="1110" type="line"/>
      <point x="852" y="1150"/>
      <point x="978" y="1196"/>
      <point x="1108" y="1244" type="curve"/>
      <point x="1020" y="1490" type="line"/>
      <point x="888" y="1442"/>
      <point x="770" y="1398"/>
      <point x="660" y="1358" type="curve"/>
      <point x="556" y="1320" type="line"/>
      <point x="446" y="1280"/>
      <point x="326" y="1236"/>
      <point x="194" y="1188" type="curve"/>
    </contour>
  </outline>
</glyph>
<glyph name="thorn" format="2">
  <advance width="1186"/>
  <unicode hex="00FE"/>
  <outline>
    <contour>
      <point x="70" y="-396" type="curve"/>
      <point x="514" y="-384" type="line"/>
      <point x="514" y="-246"/>
      <point x="514" y="-126"/>
      <point x="514" y="16" type="curve"/>
      <point x="514" y="90" type="line"/>
      <point x="536" y="90" type="line"/>
      <point x="590" y="16"/>
      <point x="662" y="-32"/>
      <point x="770" y="-32" type="curve" smooth="yes"/>
      <point x="1032" y="-32"/>
      <point x="1146" y="224"/>
      <point x="1146" y="502" type="curve" smooth="yes"/>
      <point x="1146" y="800"/>
      <point x="1024" y="1036"/>
      <point x="784" y="1036" type="curve" smooth="yes"/>
      <point x="670" y="1036"/>
      <point x="600" y="980"/>
      <point x="548" y="894" type="curve"/>
      <point x="514" y="894" type="line"/>
      <point x="514" y="986" type="line"/>
      <point x="514" y="1178"/>
      <point x="514" y="1346"/>
      <point x="514" y="1500" type="curve"/>
      <point x="70" y="1468" type="line"/>
      <point x="70" y="1302"/>
      <point x="70" y="1144"/>
      <point x="70" y="986" type="curve"/>
      <point x="70" y="42" type="line"/>
      <point x="70" y="-126"/>
      <point x="70" y="-258"/>
    </contour>
    <contour>
      <point x="588" y="338" type="curve"/>
      <point x="550" y="338"/>
      <point x="524" y="364"/>
      <point x="514" y="394" type="curve"/>
      <point x="514" y="624" type="line"/>
      <point x="530" y="644"/>
      <point x="558" y="660"/>
      <point x="588" y="660" type="curve"/>
      <point x="656" y="660"/>
      <point x="692" y="584"/>
      <point x="692" y="498" type="curve" smooth="yes"/>
      <point x="692" y="418"/>
      <point x="654" y="338"/>
    </contour>
  </outline>
</glyph>
<glyph name="idotless" format="2">
  <advance width="604"/>
  <unicode hex="0131"/>
  <anchor x="302" y="0" name="bottom"/>
  <anchor x="524" y="0" name="ogonek"/>
  <anchor x="302" y="1004" name="top"/>
  <outline>
    <contour>
      <point x="80" y="0" type="curve"/>
      <point x="524" y="0" type="line"/>
      <point x="524" y="138"/>
      <point x="524" y="258"/>
      <point x="524" y="426" type="curve"/>
      <point x="524" y="526" type="line"/>
      <point x="524" y="746"/>
      <point x="524" y="866"/>
      <point x="524" y="1004" type="curve"/>
      <point x="80" y="1004" type="line"/>
      <point x="80" y="866"/>
      <point x="80" y="746"/>
      <point x="80" y="526" type="curve"/>
      <point x="80" y="426" type="line"/>
      <point x="80" y="258"/>
      <point x="80" y="138"/>
    </contour>
  </outline>
</glyph>
<glyph name="Lslash" format="2">
  <advance width="1208"/>
  <unicode hex="0141"/>
  <outline>
    <contour>
      <point x="152" y="0" type="curve"/>
      <point x="644" y="0" type="line"/>
      <point x="644" y="80" type="line"/>
      <point x="644" y="228"/>
      <point x="644" y="356"/>
      <point x="644" y="538" type="curve"/>
      <point x="644" y="948" type="line"/>
      <point x="644" y="1138"/>
      <point x="644" y="1272"/>
      <point x="644" y="1426" type="curve"/>
      <point x="152" y="1426" type="line"/>
      <point x="152" y="1272"/>
      <point x="152" y="1138"/>
      <point x="152" y="948" type="curve"/>
      <point x="152" y="458" type="line"/>
      <point x="152" y="276"/>
      <point x="152" y="148"/>
    </contour>
    <contour>
      <point x="54" y="448" type="line"/>
      <point x="200" y="492"/>
      <point x="336" y="532"/>
      <point x="460" y="568" type="curve"/>
      <point x="568" y="600" type="line"/>
      <point x="692" y="636"/>
      <point x="830" y="678"/>
      <point x="974" y="720" type="curve"/>
      <point x="884" y="1028" type="line"/>
      <point x="738" y="986"/>
      <point x="600" y="944"/>
      <point x="478" y="908" type="curve"/>
      <point x="368" y="876" type="line"/>
      <point x="246" y="840"/>
      <point x="112" y="800"/>
      <point x="-38" y="756" type="curve"/>
    </contour>
    <contour>
      <point x="580" y="0" type="line"/>
      <point x="1160" y="0" type="line"/>
      <point x="1160" y="424" type="line"/>
      <point x="1036" y="424"/>
      <point x="930" y="424"/>
      <point x="748" y="424" type="curve"/>
      <point x="580" y="424" type="line"/>
    </contour>
  </outline>
</glyph>
<glyph name="eng" format="2">
  <advance width="1168"/>
  <unicode hex="014B"/>
  <outline>
    <contour>
      <point x="536" y="-396" type="curve"/>
      <point x="948" y="-384" type="line"/>
      <point x="1062" y="-296"/>
      <point x="1108" y="-144"/>
      <point x="1108" y="48" type="curve" smooth="yes"/>
      <point x="1108" y="220"/>
      <point x="1108" y="362"/>
      <point x="1108" y="526" type="curve"/>
      <point x="1108" y="578"/>
      <point x="1108" y="628"/>
      <point x="1108" y="684" type="curve" smooth="yes"/>
      <point x="1108" y="922"/>
      <point x="992" y="1036"/>
      <point x="804" y="1036" type="curve" smooth="yes"/>
      <point x="662" y="1036"/>
      <point x="564" y="968"/>
      <point x="492" y="862" type="curve"/>
      <point x="458" y="862" type="line"/>
      <point x="438" y="1024" type="line"/>
      <point x="70" y="1004" type="line"/>
      <point x="70" y="838"/>
      <point x="70" y="684"/>
      <point x="70" y="526" type="curve"/>
      <point x="70" y="426" type="line"/>
      <point x="70" y="258"/>
      <point x="70" y="138"/>
      <point x="70" y="0" type="curve"/>
      <point x="514" y="0" type="line"/>
      <point x="514" y="138"/>
      <point x="514" y="258"/>
      <point x="514" y="400" type="curve"/>
      <point x="514" y="582" type="line"/>
      <point x="536" y="612"/>
      <point x="566" y="636"/>
      <point x="600" y="636" type="curve" smooth="yes"/>
      <point x="648" y="636"/>
      <point x="664" y="600"/>
      <point x="664" y="530" type="curve"/>
      <point x="664" y="400" type="line"/>
      <point x="664" y="90" type="line"/>
      <point x="664" y="-82"/>
      <point x="630" y="-266"/>
    </contour>
  </outline>
</glyph>
<glyph name="OE" format="2">
  <advance width="2110"/>
  <unicode hex="0152"/>
  <anchor x="1056" y="0" name="bottom"/>
  <anchor x="1056" y="1426" name="top"/>
  <outline>
    <contour>
      <point x="1002" y="0" type="curve"/>
      <point x="1482" y="0" type="line"/>
      <point x="1482" y="80" type="line"/>
      <point x="1482" y="228"/>
      <point x="1482" y="356"/>
      <point x="1482" y="538" type="curve"/>
      <point x="1482" y="868" type="line"/>
      <point x="1482" y="1058"/>
      <point x="1482" y="1192"/>
      <point x="1482" y="1346" type="curve"/>
      <point x="1482" y="1426" type="line"/>
      <point x="1002" y="1426" type="line"/>
      <point x="1002" y="1272"/>
      <point x="1002" y="1138"/>
      <point x="1002" y="948" type="curve"/>
      <point x="1002" y="458" type="line"/>
      <point x="1002" y="276"/>
      <point x="1002" y="148"/>
    </contour>
    <contour>
      <point x="1430" y="0" type="line"/>
      <point x="2030" y="0" type="line"/>
      <point x="2030" y="386" type="line"/>
      <point x="1912" y="386"/>
      <point x="1786" y="386"/>
      <point x="1644" y="386" type="curve"/>
      <point x="1430" y="386" type="line"/>
    </contour>
    <contour>
      <point x="1368" y="542" type="line"/>
      <point x="1612" y="542" type="line"/>
      <point x="1770" y="542"/>
      <point x="1878" y="542"/>
      <point x="1994" y="542" type="curve"/>
      <point x="1994" y="886" type="line"/>
      <point x="1884" y="886"/>
      <point x="1776" y="886"/>
      <point x="1612" y="886" type="curve"/>
      <point x="1368" y="886" type="line"/>
    </contour>
    <contour>
      <point x="1398" y="1040" type="line"/>
      <point x="1612" y="1040" type="line"/>
      <point x="1784" y="1040"/>
      <point x="1904" y="1040"/>
      <point x="2016" y="1040" type="curve"/>
      <point x="2016" y="1426" type="line"/>
      <point x="1398" y="1426" type="line"/>
    </contour>
    <contour>
      <point x="824" y="-32" type="curve" smooth="yes"/>
      <point x="992" y="-32"/>
      <point x="1168" y="-6"/>
      <point x="1284" y="50" type="curve"/>
      <point x="1262" y="494" type="line"/>
      <point x="1132" y="394"/>
      <point x="1008" y="364"/>
      <point x="896" y="364" type="curve"/>
      <point x="664" y="364"/>
      <point x="560" y="528"/>
      <point x="560" y="710" type="curve" smooth="yes"/>
      <point x="560" y="942"/>
      <point x="690" y="1048"/>
      <point x="860" y="1048" type="curve"/>
      <point x="966" y="1048"/>
      <point x="1100" y="1010"/>
      <point x="1256" y="906" type="curve"/>
      <point x="1290" y="1356" type="line"/>
      <point x="1168" y="1416"/>
      <point x="978" y="1458"/>
      <point x="800" y="1458" type="curve" smooth="yes"/>
      <point x="306" y="1458"/>
      <point x="48" y="1134"/>
      <point x="48" y="708" type="curve" smooth="yes"/>
      <point x="48" y="250"/>
      <point x="348" y="-32"/>
    </contour>
  </outline>
</glyph>
<glyph name="circumflexcomb" format="2">
  <unicode hex="0302"/>
  <anchor x="600" y="1004" name="_top"/>
  <anchor x="600" y="1510" name="top"/>
  <outline>
    <contour>
      <point x="732" y="1104" type="curve"/>
      <point x="1044" y="1108" type="line"/>
      <point x="970" y="1252"/>
      <point x="898" y="1398"/>
      <point x="822" y="1548" type="curve"/>
      <point x="416" y="1548" type="line"/>
      <point x="526" y="1396"/>
      <point x="632" y="1248"/>
    </contour>
    <contour>
      <point x="156" y="1108" type="curve"/>
      <point x="472" y="1108" type="line"/>
      <point x="570" y="1250"/>
      <point x="676" y="1398"/>
      <point x="784" y="1548" type="curve"/>
      <point x="378" y="1548" type="line"/>
      <point x="302" y="1398"/>
      <point x="230" y="1252"/>
    </contour>
  </outline>
</glyph>
<glyph name="brevecomb" format="2">
  <unicode hex="0306"/>
  <anchor x="600" y="1004" name="_top"/>
  <anchor x="600" y="1438" name="top"/>
  <outline>
    <contour>
      <point x="598" y="1076" type="curve" smooth="yes"/>
      <point x="886" y="1076"/>
      <point x="1022" y="1208"/>
      <point x="1022" y="1522" type="curve"/>
      <point x="728" y="1522" type="line"/>
      <point x="728" y="1432"/>
      <point x="694" y="1360"/>
      <point x="598" y="1360" type="curve"/>
      <point x="504" y="1360"/>
      <point x="470" y="1432"/>
      <point x="470" y="1536" type="curve"/>
      <point x="176" y="1522" type="line"/>
      <point x="176" y="1208"/>
      <point x="314" y="1076"/>
    </contour>
  </outline>
</glyph>
<glyph name="dieresiscomb" format="2">
  <unicode hex="0308"/>
  <anchor x="598" y="1004" name="_top"/>
  <anchor x="596" y="1420" name="top"/>
  <outline>
    <contour>
      <point x="842" y="1076" type="curve" smooth="yes"/>
      <point x="976" y="1076"/>
      <point x="1054" y="1144"/>
      <point x="1054" y="1284" type="curve" smooth="yes"/>
      <point x="1054" y="1396"/>
      <point x="976" y="1486"/>
      <point x="844" y="1486" type="curve" smooth="yes"/>
      <point x="710" y="1486"/>
      <point x="632" y="1402"/>
      <point x="632" y="1284" type="curve" smooth="yes"/>
      <point x="632" y="1144"/>
      <point x="710" y="1076"/>
    </contour>
    <contour>
      <point x="354" y="1076" type="curve" smooth="yes"/>
      <point x="488" y="1076"/>
      <point x="566" y="1144"/>
      <point x="566" y="1284" type="curve" smooth="yes"/>
      <point x="566" y="1396"/>
      <point x="488" y="1486"/>
      <point x="356" y="1486" type="curve" smooth="yes"/>
      <point x="222" y="1486"/>
      <point x="144" y="1402"/>
      <point x="144" y="1284" type="curve" smooth="yes"/>
      <point x="144" y="1144"/>
      <point x="222" y="1076"/>
    </contour>
  </outline>
</glyph>
<glyph name="hookabovecomb" format="2">
  <unicode hex="0309"/>
  <anchor x="600" y="1004" name="_top"/>
  <anchor x="600" y="1626" name="top"/>
  <outline>
    <contour>
      <point x="438" y="1108" type="line"/>
      <point x="678" y="1108" type="line"/>
      <point x="678" y="1132" type="line"/>
      <point x="850" y="1184"/>
      <point x="956" y="1266"/>
      <point x="956" y="1408" type="curve" smooth="yes"/>
      <point x="956" y="1580"/>
      <point x="790" y="1626"/>
      <point x="622" y="1626" type="curve" smooth="yes"/>
      <point x="466" y="1626"/>
      <point x="348" y="1592"/>
      <point x="290" y="1570" type="curve"/>
      <point x="308" y="1328" type="line"/>
      <point x="388" y="1360"/>
      <point x="466" y="1386"/>
      <point x="544" y="1386" type="curve"/>
      <point x="590" y="1386"/>
      <point x="618" y="1370"/>
      <point x="618" y="1340" type="curve" smooth="yes"/>
      <point x="618" y="1292"/>
      <point x="530" y="1254"/>
      <point x="438" y="1216" type="curve"/>
    </contour>
  </outline>
</glyph>
<glyph name="dieresisbelowcomb" format="2">
  <unicode hex="0324"/>
  <anchor x="600" y="0" name="_bottom"/>
  <outline>
    <contour>
      <point x="842" y="-482" type="curve" smooth="yes"/>
      <point x="976" y="-482"/>
      <point x="1054" y="-414"/>
      <point x="1054" y="-274" type="curve" smooth="yes"/>
      <point x="1054" y="-162"/>
      <point x="976" y="-72"/>
      <point x="844" y="-72" type="curve" smooth="yes"/>
      <point x="710" y="-72"/>
      <point x="632" y="-156"/>
      <point x="632" y="-274" type="curve" smooth="yes"/>
      <point x="632" y="-414"/>
      <point x="710" y="-482"/>
    </contour>
    <contour>
      <point x="354" y="-482" type="curve" smooth="yes"/>
      <point x="488" y="-482"/>
      <point x="566" y="-414"/>
      <point x="566" y="-274" type="curve" smooth="yes"/>
      <point x="566" y="-162"/>
      <point x="488" y="-72"/>
      <point x="356" y="-72" type="curve" smooth="yes"/>
      <point x="222" y="-72"/>
      <point x="144" y="-156"/>
      <point x="144" y="-274" type="curve" smooth="yes"/>
      <point x="144" y="-414"/>
      <point x="222" y="-482"/>
    </contour>
  </outline>
</glyph>
<glyph name="pi" format="2">
  <advance width="1296"/>
  <unicode hex="03C0"/>
  <outline>
    <contour>
      <point x="724" y="0" type="curve"/>
      <point x="1154" y="0" type="line"/>
      <point x="1154" y="140"/>
      <point x="1154" y="276"/>
      <point x="1154" y="408" type="curve"/>
      <point x="1154" y="1004" type="line"/>
      <point x="724" y="1004" type="line"/>
      <point x="724" y="708"/>
      <point x="724" y="518"/>
      <point x="724" y="330" type="curve"/>
      <point x="724" y="210"/>
      <point x="724" y="90"/>
    </contour>
    <contour>
      <point x="152" y="0" type="curve"/>
      <point x="582" y="0" type="line"/>
      <point x="582" y="138"/>
      <point x="582" y="258"/>
      <point x="582" y="400" type="curve"/>
      <point x="582" y="526" type="line"/>
      <point x="582" y="686"/>
      <point x="582" y="844"/>
      <point x="582" y="1004" type="curve"/>
      <point x="152" y="1004" type="line"/>
      <point x="152" y="866"/>
      <point x="152" y="746"/>
      <point x="152" y="526" type="curve"/>
      <point x="152" y="426" type="line"/>
      <point x="152" y="258"/>
      <point x="152" y="138"/>
    </contour>
    <contour>
      <point x="24" y="678" type="line"/>
      <point x="290" y="678" type="line"/>
      <point x="916" y="678" type="line"/>
      <point x="1022" y="678"/>
      <point x="1140" y="678"/>
      <point x="1256" y="678" type="curve"/>
      <point x="1256" y="1004" type="line"/>
      <point x="24" y="1004" type="line"/>
    </contour>
  </outline>
</glyph>
<glyph name="emdash" format="2">
  <advance width="1620"/>
  <unicode hex="2014"/>
  <outline>
    <contour>
      <point x="80" y="418" type="line"/>
      <point x="276" y="418"/>
      <point x="460" y="418"/>
      <point x="622" y="418" type="curve"/>
      <point x="998" y="418" type="line"/>
      <point x="1160" y="418"/>
      <point x="1344" y="418"/>
      <point x="1540" y="418" type="curve"/>
      <point x="1540" y="798" type="line"/>
      <point x="1344" y="798"/>
      <point x="1160" y="798"/>
      <point x="998" y="798" type="curve"/>
      <point x="622" y="798" type="line"/>
      <point x="460" y="798"/>
      <point x="276" y="798"/>
      <point x="80" y="798" type="curve"/>
    </contour>
  </outline>
</glyph>
<glyph name="bullet" format="2">
  <advance width="900"/>
  <unicode hex="2022"/>
  <outline>
    <contour>
      <point x="450" y="238" type="curve" smooth="yes"/>
      <point x="682" y="238"/>
      <point x="820" y="402"/>
      <point x="820" y="612" type="curve" smooth="yes"/>
      <point x="820" y="820"/>
      <point x="682" y="978"/>
      <point x="450" y="978" type="curve" smooth="yes"/>
      <point x="218" y="978"/>
      <point x="80" y="820"/>
      <point x="80" y="612" type="curve" smooth="yes"/>
      <point x="80" y="402"/>
      <point x="218" y="238"/>
    </contour>
  </outline>
</glyph>
<glyph name="minute" format="2">
  <advance width="580"/>
  <unicode hex="2032"/>
  <outline>
    <contour>
      <point x="80" y="618" type="curve"/>
      <point x="398" y="620" type="line"/>
      <point x="442" y="880"/>
      <point x="486" y="1136"/>
      <point x="530" y="1390" type="curve"/>
      <point x="110" y="1380" type="line"/>
      <point x="102" y="1128"/>
      <point x="90" y="874"/>
    </contour>
  </outline>
</glyph>
<glyph name="won" format="2">
  <advance width="2224"/>
  <unicode hex="20A9"/>
  <outline>
    <contour>
      <point x="442" y="0" type="curve"/>
      <point x="972" y="0" type="line"/>
      <point x="988" y="112"/>
      <point x="1008" y="252"/>
      <point x="1024" y="364" type="curve"/>
      <point x="1072" y="698" type="line"/>
      <point x="1102" y="698" type="line"/>
      <point x="1156" y="362" type="line"/>
      <point x="1174" y="250"/>
      <point x="1196" y="112"/>
      <point x="1214" y="0" type="curve"/>
      <point x="1770" y="0" type="line"/>
      <point x="1802" y="132"/>
      <point x="1842" y="294"/>
      <point x="1876" y="434" type="curve"/>
      <point x="1982" y="870" type="line"/>
      <point x="2014" y="1002"/>
      <point x="2064" y="1208"/>
      <point x="2106" y="1380" type="curve"/>
      <point x="1574" y="1380" type="line"/>
      <point x="1560" y="1240"/>
      <point x="1544" y="1082"/>
      <point x="1532" y="960" type="curve"/>
      <point x="1492" y="564" type="line"/>
      <point x="1462" y="564" type="line"/>
      <point x="1410" y="944" type="line"/>
      <point x="1392" y="1074"/>
      <point x="1368" y="1250"/>
      <point x="1350" y="1380" type="curve"/>
      <point x="868" y="1380" type="line"/>
      <point x="850" y="1240"/>
      <point x="832" y="1096"/>
      <point x="814" y="956" type="curve"/>
      <point x="764" y="564" type="line"/>
      <point x="734" y="564" type="line"/>
      <point x="694" y="952" type="line"/>
      <point x="680" y="1090"/>
      <point x="664" y="1242"/>
      <point x="650" y="1380" type="curve"/>
      <point x="118" y="1380" type="line"/>
      <point x="158" y="1210"/>
      <point x="206" y="1006"/>
      <point x="240" y="860" type="curve"/>
      <point x="340" y="434" type="line"/>
      <point x="372" y="300"/>
      <point x="408" y="144"/>
    </contour>
    <contour>
      <point x="40" y="566" type="line"/>
      <point x="190" y="566"/>
      <point x="332" y="566"/>
      <point x="456" y="566" type="curve"/>
      <point x="1768" y="566" type="line"/>
      <point x="1892" y="566"/>
      <point x="2034" y="566"/>
      <point x="2184" y="566" type="curve"/>
      <point x="2184" y="866" type="line"/>
      <point x="2034" y="866"/>
      <point x="1892" y="866"/>
      <point x="1768" y="866" type="curve"/>
      <point x="456" y="866" type="line"/>
      <point x="332" y="866"/>
      <point x="190" y="866"/>
      <point x="40" y="866" type="curve"/>
    </contour>
  </outline>
</glyph>
<glyph name="kip" format="2">
  <advance width="1566"/>
  <unicode hex="20AD"/>
  <outline>
    <contour>
      <point x="960" y="0" type="curve"/>
      <point x="1516" y="0" type="line"/>
      <point x="1442" y="136"/>
      <point x="1318" y="366"/>
      <point x="1234" y="522" type="curve"/>
      <point x="1044" y="874" type="line"/>
      <point x="1056" y="668" type="line"/>
      <point x="1230" y="944" type="line"/>
      <point x="1314" y="1078"/>
      <point x="1406" y="1224"/>
      <point x="1504" y="1380" type="curve"/>
      <point x="976" y="1380" type="line"/>
      <point x="916" y="1254"/>
      <point x="876" y="1168"/>
      <point x="828" y="1068" type="curve"/>
      <point x="728" y="856" type="line"/>
      <point x="636" y="856" type="line"/>
      <point x="636" y="576" type="line"/>
      <point x="734" y="576" type="line"/>
      <point x="834" y="322" type="line"/>
      <point x="872" y="224"/>
      <point x="914" y="118"/>
    </contour>
    <contour>
      <point x="232" y="0" type="curve"/>
      <point x="700" y="0" type="line"/>
      <point x="700" y="142"/>
      <point x="700" y="266"/>
      <point x="700" y="440" type="curve"/>
      <point x="700" y="922" type="line"/>
      <point x="700" y="1104"/>
      <point x="700" y="1234"/>
      <point x="700" y="1380" type="curve"/>
      <point x="232" y="1380" type="line"/>
      <point x="232" y="1234"/>
      <point x="232" y="1104"/>
      <point x="232" y="922" type="curve"/>
      <point x="232" y="440" type="line"/>
      <point x="232" y="266"/>
      <point x="232" y="142"/>
    </contour>
    <contour>
      <point x="50" y="566" type="line"/>
      <point x="200" y="566"/>
      <point x="342" y="566"/>
      <point x="466" y="566" type="curve"/>
      <point x="1094" y="566" type="line"/>
      <point x="1218" y="566"/>
      <point x="1360" y="566"/>
      <point x="1510" y="566" type="curve"/>
      <point x="1510" y="866" type="line"/>
      <point x="1360" y="866"/>
      <point x="1218" y="866"/>
      <point x="1094" y="866" type="curve"/>
      <point x="466" y="866" type="line"/>
      <point x="342" y="866"/>
      <point x="200" y="866"/>
      <point x="50" y="866" type="curve"/>
    </contour>
  </outline>
</glyph>
<glyph name="cedi" format="2">
  <advance width="1302"/>
  <unicode hex="20B5"/>
  <outline>
    <contour>
      <point x="612" y="-274" type="curve"/>
      <point x="932" y="-274" type="line"/>
      <point x="932" y="-40"/>
      <point x="932" y="164"/>
      <point x="932" y="384" type="curve"/>
      <point x="932" y="948" type="line"/>
      <point x="932" y="1164"/>
      <point x="932" y="1370"/>
      <point x="932" y="1606" type="curve"/>
      <point x="612" y="1606" type="line"/>
      <point x="612" y="1370"/>
      <point x="612" y="1164"/>
      <point x="612" y="948" type="curve"/>
      <point x="612" y="384" type="line"/>
      <point x="612" y="168"/>
      <point x="612" y="-38"/>
    </contour>
    <contour>
      <point x="786" y="-30" type="curve" smooth="yes"/>
      <point x="942" y="-30"/>
      <point x="1112" y="-6"/>
      <point x="1222" y="48" type="curve"/>
      <point x="1202" y="474" type="line"/>
      <point x="1078" y="376"/>
      <point x="958" y="348"/>
      <point x="854" y="348" type="curve"/>
      <point x="636" y="348"/>
      <point x="536" y="506"/>
      <point x="536" y="688" type="curve" smooth="yes"/>
      <point x="536" y="914"/>
      <point x="660" y="1018"/>
      <point x="820" y="1018" type="curve"/>
      <point x="918" y="1018"/>
      <point x="1048" y="980"/>
      <point x="1196" y="880" type="curve"/>
      <point x="1228" y="1312" type="line"/>
      <point x="1110" y="1370"/>
      <point x="930" y="1410"/>
      <point x="762" y="1410" type="curve" smooth="yes"/>
      <point x="294" y="1410"/>
      <point x="48" y="1098"/>
      <point x="48" y="686" type="curve" smooth="yes"/>
      <point x="48" y="240"/>
      <point x="334" y="-30"/>
    </contour>
  </outline>
</glyph>
<glyph name="emptyset" format="2">
  <advance width="1282"/>
  <unicode hex="2205"/>
  <outline>
    <contour>
      <point x="272" y="-52" type="line"/>
      <point x="370" y="76"/>
      <point x="462" y="196"/>
      <point x="570" y="336" type="curve"/>
      <point x="868" y="728" type="line"/>
      <point x="976" y="870"/>
      <point x="1064" y="986"/>
      <point x="1166" y="1120" type="curve"/>
      <point x="1004" y="1242" type="line"/>
      <point x="904" y="1110"/>
      <point x="814" y="994"/>
      <point x="704" y="850" type="curve"/>
      <point x="412" y="468" type="line"/>
      <point x="306" y="328"/>
      <point x="220" y="218"/>
      <point x="116" y="80" type="curve"/>
    </contour>
    <contour>
      <point x="638" y="44" type="curve" smooth="yes"/>
      <point x="990" y="44"/>
      <point x="1232" y="230"/>
      <point x="1232" y="598" type="curve" smooth="yes"/>
      <point x="1232" y="918"/>
      <point x="990" y="1144"/>
      <point x="644" y="1144" type="curve" smooth="yes"/>
      <point x="292" y="1144"/>
      <point x="50" y="928"/>
      <point x="50" y="598" type="curve" smooth="yes"/>
      <point x="50" y="232"/>
      <point x="292" y="44"/>
    </contour>
    <contour>
      <point x="640" y="348" type="curve"/>
      <point x="494" y="348"/>
      <point x="396" y="436"/>
      <point x="396" y="596" type="curve" smooth="yes"/>
      <point x="396" y="734"/>
      <point x="494" y="842"/>
      <point x="640" y="842" type="curve"/>
      <point x="790" y="842"/>
      <point x="886" y="728"/>
      <point x="886" y="596" type="curve" smooth="yes"/>
      <point x="886" y="436"/>
      <point x="788" y="348"/>
    </contour>
  </outline>
</glyph>
<glyph name="lessequal" format="2">
  <advance width="1180"/>
  <unicode hex="2264"/>
  <outline>
    <contour>
      <point x="1100" y="426" type="curve"/>
      <point x="1100" y="826" type="line"/>
      <point x="1006" y="856"/>
      <point x="912" y="886"/>
      <point x="818" y="916" type="curve"/>
      <point x="670" y="962" type="line"/>
      <point x="670" y="994" type="line"/>
      <point x="818" y="1040" type="line"/>
      <point x="912" y="1070"/>
      <point x="1006" y="1100"/>
      <point x="1100" y="1130" type="curve"/>
      <point x="1100" y="1530" type="line"/>
      <point x="950" y="1478"/>
      <point x="808" y="1426"/>
      <point x="684" y="1382" type="curve"/>
      <point x="496" y="1316" type="line"/>
      <point x="372" y="1272"/>
      <point x="230" y="1220"/>
      <point x="80" y="1168" type="curve"/>
      <point x="80" y="788" type="line"/>
      <point x="230" y="736"/>
      <point x="372" y="684"/>
      <point x="496" y="640" type="curve"/>
      <point x="684" y="574" type="line"/>
      <point x="808" y="530"/>
      <point x="950" y="478"/>
    </contour>
    <contour>
      <point x="80" y="0" type="line"/>
      <point x="230" y="0"/>
      <point x="372" y="0"/>
      <point x="496" y="0" type="curve"/>
      <point x="684" y="0" type="line"/>
      <point x="808" y="0"/>
      <point x="950" y="0"/>
      <point x="1100" y="0" type="curve"/>
      <point x="1100" y="380" type="line"/>
      <point x="950" y="380"/>
      <point x="808" y="380"/>
      <point x="684" y="380" type="curve"/>
      <point x="496" y="380" type="line"/>
      <point x="372" y="380"/>
      <point x="230" y="380"/>
      <point x="80" y="380" type="curve"/>
    </contour>
  </outline>
</glyph>
<glyph name="lozenge" format="2">
  <advance width="1316"/>
  <unicode hex="25CA"/>
  <outline>
    <contour>
      <point x="402" y="0" type="curve"/>
      <point x="914" y="0" type="line"/>
      <point x="1024" y="208"/>
      <point x="1136" y="418"/>
      <point x="1246" y="626" type="curve"/>
      <point x="1136" y="834"/>
      <point x="1024" y="1044"/>
      <point x="914" y="1252" type="curve"/>
      <point x="402" y="1252" type="line"/>
      <point x="292" y="1044"/>
      <point x="180" y="834"/>
      <point x="70" y="626" type="curve"/>
      <point x="180" y="418"/>
      <point x="292" y="208"/>
    </contour>
    <contour>
      <point x="644" y="306" type="line"/>
      <point x="592" y="412"/>
      <point x="540" y="520"/>
      <point x="488" y="626" type="curve"/>
      <point x="540" y="732"/>
      <point x="592" y="840"/>
      <point x="644" y="946" type="curve"/>
      <point x="672" y="946" type="line"/>
      <point x="724" y="840"/>
      <point x="776" y="732"/>
      <point x="828" y="626" type="curve"/>
      <point x="776" y="520"/>
      <point x="724" y="412"/>
      <point x="672" y="306" type="curve"/>
    </contour>
  </outline>
</glyph>
<glyph name="_notequal" format="2">
  <advance width="1180"/>
  <outline>
    <contour>
      <point x="562" y="-58" type="line"/>
      <point x="602" y="90"/>
      <point x="638" y="224"/>
      <point x="670" y="344" type="curve"/>
      <point x="796" y="816" type="line"/>
      <point x="828" y="936"/>
      <point x="866" y="1072"/>
      <point x="904" y="1218" type="curve"/>
      <point x="614" y="1296" type="line"/>
      <point x="576" y="1150"/>
      <point x="540" y="1014"/>
      <point x="508" y="894" type="curve"/>
      <point x="380" y="422" type="line"/>
      <point x="348" y="302"/>
      <point x="312" y="166"/>
      <point x="274" y="20" type="curve"/>
    </contour>
  </outline>
</glyph>
<glyph name="brevecomb_hookabovecomb.case" format="2">
  <anchor x="599" y="1004" name="_top"/>
  <outline>
    <contour>
      <point x="598" y="1076" type="curve" smooth="yes"/>
      <point x="886" y="1076"/>
      <point x="1022" y="1196"/>
      <point x="1022" y="1444" type="curve"/>
      <point x="738" y="1444" type="line"/>
      <point x="738" y="1402"/>
      <point x="702" y="1336"/>
      <point x="598" y="1336" type="curve"/>
      <point x="496" y="1336"/>
      <point x="460" y="1402"/>
      <point x="460" y="1456" type="curve"/>
      <point x="176" y="1444" type="line"/>
      <point x="176" y="1196"/>
      <point x="314" y="1076"/>
    </contour>
    <contour>
      <point x="462" y="1480" type="line"/>
      <point x="670" y="1480" type="line"/>
      <point x="670" y="1500" type="line"/>
      <point x="820" y="1526"/>
      <point x="912" y="1598"/>
      <point x="912" y="1720" type="curve" smooth="yes"/>
      <point x="912" y="1870"/>
      <point x="768" y="1910"/>
      <point x="622" y="1910" type="curve" smooth="yes"/>
      <point x="486" y="1910"/>
      <point x="384" y="1880"/>
      <point x="334" y="1862" type="curve"/>
      <point x="350" y="1652" type="line"/>
      <point x="418" y="1678"/>
      <point x="486" y="1702"/>
      <point x="554" y="1702" type="curve"/>
      <point x="594" y="1702"/>
      <point x="618" y="1688"/>
      <point x="618" y="1662" type="curve" smooth="yes"/>
      <point x="618" y="1620"/>
      <point x="542" y="1586"/>
      <point x="462" y="1574" type="curve"/>
    </contour>
  </outline>
</glyph>
<glyph name="brevecomb_tildecomb.case" format="2">
  <anchor x="600" y="1004" name="_top"/>
  <outline>
    <contour>
      <point x="598" y="1076" type="curve" smooth="yes"/>
      <point x="886" y="1076"/>
      <point x="1022" y="1196"/>
      <point x="1022" y="1444" type="curve"/>
      <point x="738" y="1444" type="line"/>
      <point x="738" y="1402"/>
      <point x="702" y="1336"/>
      <point x="598" y="1336" type="curve"/>
      <point x="496" y="1336"/>
      <point x="460" y="1402"/>
      <point x="460" y="1456" type="curve"/>
      <point x="176" y="1444" type="line"/>
      <point x="176" y="1196"/>
      <point x="314" y="1076"/>
    </contour>
    <contour>
      <point x="770" y="1500" type="curve" smooth="yes"/>
      <point x="902" y="1500"/>
      <point x="990" y="1624"/>
      <point x="990" y="1844" type="curve"/>
      <point x="792" y="1844" type="line"/>
      <point x="784" y="1816"/>
      <point x="766" y="1764"/>
      <point x="728" y="1764" type="curve"/>
      <point x="672" y="1764"/>
      <point x="598" y="1882"/>
      <point x="444" y="1882" type="curve" smooth="yes"/>
      <point x="302" y="1882"/>
      <point x="210" y="1758"/>
      <point x="210" y="1538" type="curve"/>
      <point x="408" y="1538" type="line"/>
      <point x="418" y="1566"/>
      <point x="438" y="1618"/>
      <point x="480" y="1618" type="curve"/>
      <point x="530" y="1618"/>
      <point x="610" y="1500"/>
    </contour>
  </outline>
</glyph>
<glyph name="brevecomb_tildecomb" format="2">
  <anchor x="600" y="1004" name="_top"/>
  <outline>
    <contour>
      <point x="598" y="1076" type="curve" smooth="yes"/>
      <point x="886" y="1076"/>
      <point x="1022" y="1196"/>
      <point x="1022" y="1484" type="curve"/>
      <point x="738" y="1484" type="line"/>
      <point x="738" y="1402"/>
      <point x="702" y="1336"/>
      <point x="598" y="1336" type="curve"/>
      <point x="496" y="1336"/>
      <point x="460" y="1402"/>
      <point x="460" y="1496" type="curve"/>
      <point x="176" y="1484" type="line"/>
      <point x="176" y="1196"/>
      <point x="314" y="1076"/>
    </contour>
    <contour>
      <point x="770" y="1540" type="curve" smooth="yes"/>
      <point x="902" y="1540"/>
      <point x="990" y="1664"/>
      <point x="990" y="1884" type="curve"/>
      <point x="792" y="1884" type="line"/>
      <point x="784" y="1856"/>
      <point x="766" y="1804"/>
      <point x="728" y="1804" type="curve"/>
      <point x="672" y="1804"/>
      <point x="598" y="1922"/>
      <point x="444" y="1922" type="curve" smooth="yes"/>
      <point x="302" y="1922"/>
      <point x="210" y="1798"/>
      <point x="210" y="1578" type="curve"/>
      <point x="408" y="1578" type="line"/>
      <point x="418" y="1606"/>
      <point x="438" y="1658"/>
      <point x="480" y="1658" type="curve"/>
      <point x="530" y="1658"/>
      <point x="610" y="1540"/>
    </contour>
  </outline>
</glyph>
<glyph name="caroncomb.alt" format="2">
  <anchor x="600" y="1004" name="_topright"/>
  <outline>
    <contour>
      <point x="648" y="1094" type="curve"/>
      <point x="820" y="1098" type="line"/>
      <point x="914" y="1172"/>
      <point x="1032" y="1290"/>
      <point x="1032" y="1440" type="curve" smooth="yes"/>
      <point x="1032" y="1536"/>
      <point x="958" y="1600"/>
      <point x="872" y="1608" type="curve"/>
      <point x="682" y="1590" type="line"/>
      <point x="682" y="1516"/>
      <point x="682" y="1442"/>
      <point x="682" y="1368" type="curve"/>
      <point x="682" y="1274"/>
      <point x="672" y="1182"/>
    </contour>
  </outline>
</glyph>
<glyph name="circumflexcomb.narrow" format="2">
  <anchor x="600" y="1004" name="_top"/>
  <anchor x="600" y="1510" name="top"/>
  <outline>
    <contour>
      <point x="696" y="1104" type="curve"/>
      <point x="994" y="1108" type="line"/>
      <point x="928" y="1254"/>
      <point x="864" y="1398"/>
      <point x="798" y="1548" type="curve"/>
      <point x="466" y="1548" type="line"/>
      <point x="546" y="1396"/>
      <point x="624" y="1246"/>
    </contour>
    <contour>
      <point x="206" y="1108" type="curve"/>
      <point x="508" y="1108" type="line"/>
      <point x="578" y="1246"/>
      <point x="656" y="1398"/>
      <point x="734" y="1548" type="curve"/>
      <point x="404" y="1548" type="line"/>
      <point x="336" y="1398"/>
      <point x="272" y="1254"/>
    </contour>
  </outline>
</glyph>
<glyph name="circumflexcomb_acutecomb" format="2">
  <anchor x="600" y="1004" name="_top"/>
  <outline>
    <contour>
      <point x="882" y="1428" type="curve"/>
      <point x="1158" y="1430" type="line"/>
      <point x="1248" y="1550"/>
      <point x="1344" y="1682"/>
      <point x="1442" y="1814" type="curve"/>
      <point x="1060" y="1806" type="line"/>
      <point x="1002" y="1682"/>
      <point x="942" y="1554"/>
    </contour>
    <contour>
      <point x="186" y="1108" type="curve"/>
      <point x="480" y="1108" type="line"/>
      <point x="572" y="1244"/>
      <point x="670" y="1384"/>
      <point x="772" y="1528" type="curve"/>
      <point x="394" y="1528" type="line"/>
      <point x="322" y="1384"/>
      <point x="256" y="1246"/>
    </contour>
    <contour>
      <point x="724" y="1104" type="curve"/>
      <point x="1014" y="1108" type="line"/>
      <point x="948" y="1246"/>
      <point x="878" y="1384"/>
      <point x="808" y="1528" type="curve"/>
      <point x="428" y="1528" type="line"/>
      <point x="532" y="1382"/>
      <point x="630" y="1242"/>
    </contour>
  </outline>
</glyph>
<glyph name="colonsign.BRACKET.140" format="2">
  <advance width="1302"/>
  <outline>
    <contour>
      <point x="786" y="-30" type="curve" smooth="yes"/>
      <point x="942" y="-30"/>
      <point x="1112" y="-6"/>
      <point x="1222" y="48" type="curve"/>
      <point x="1202" y="474" type="line"/>
      <point x="1078" y="376"/>
      <point x="958" y="348"/>
      <point x="854" y="348" type="curve"/>
      <point x="636" y="348"/>
      <point x="536" y="506"/>
      <point x="536" y="688" type="curve" smooth="yes"/>
      <point x="536" y="914"/>
      <point x="660" y="1018"/>
      <point x="820" y="1018" type="curve"/>
      <point x="918" y="1018"/>
      <point x="1048" y="980"/>
      <point x="1196" y="880" type="curve"/>
      <point x="1228" y="1312" type="line"/>
      <point x="1110" y="1370"/>
      <point x="930" y="1410"/>
      <point x="762" y="1410" type="curve" smooth="yes"/>
      <point x="294" y="1410"/>
      <point x="48" y="1098"/>
      <point x="48" y="686" type="curve" smooth="yes"/>
      <point x="48" y="240"/>
      <point x="334" y="-30"/>
    </contour>
    <contour>
      <point x="276" y="-274" type="curve"/>
      <point x="560" y="-274" type="line"/>
      <point x="592" y="-76"/>
      <point x="620" y="100"/>
      <point x="648" y="278" type="curve"/>
      <point x="364" y="278" type="line"/>
      <point x="336" y="100"/>
      <point x="308" y="-76"/>
    </contour>
    <contour>
      <point x="642" y="-274" type="curve"/>
      <point x="926" y="-274" type="line"/>
      <point x="952" y="-112"/>
      <point x="976" y="36"/>
      <point x="1000" y="186" type="curve"/>
      <point x="716" y="186" type="line"/>
      <point x="692" y="36"/>
      <point x="668" y="-112"/>
    </contour>
    <contour>
      <point x="460" y="1208" type="curve"/>
      <point x="744" y="1208" type="line"/>
      <point x="764" y="1336"/>
      <point x="784" y="1464"/>
      <point x="806" y="1606" type="curve"/>
      <point x="522" y="1606" type="line"/>
      <point x="500" y="1466"/>
      <point x="480" y="1336"/>
    </contour>
    <contour>
      <point x="810" y="1120" type="curve"/>
      <point x="1094" y="1120" type="line"/>
      <point x="1120" y="1280"/>
      <point x="1144" y="1432"/>
      <point x="1172" y="1606" type="curve"/>
      <point x="888" y="1606" type="line"/>
      <point x="860" y="1432"/>
      <point x="836" y="1280"/>
    </contour>
  </outline>
</glyph>
<glyph name="dblgravecomb.case" format="2">
  <anchor x="600" y="1004" name="_top"/>
  <anchor x="600" y="1514" name="top"/>
  <outline>
    <contour>
      <point x="266" y="1106" type="curve"/>
      <point x="554" y="1110" type="line"/>
      <point x="486" y="1244"/>
      <point x="418" y="1376"/>
      <point x="350" y="1512" type="curve"/>
      <point x="-54" y="1502" type="line"/>
      <point x="56" y="1364"/>
      <point x="166" y="1232"/>
    </contour>
    <contour>
      <point x="738" y="1106" type="curve"/>
      <point x="1018" y="1110" type="line"/>
      <point x="968" y="1244"/>
      <point x="914" y="1376"/>
      <point x="864" y="1512" type="curve"/>
      <point x="472" y="1502" type="line"/>
      <point x="564" y="1364"/>
      <point x="654" y="1232"/>
    </contour>
  </outline>
</glyph>
<glyph name="four.dnom" format="2">
  <advance width="932"/>
  <outline>
    <contour>
      <point x="444" y="0" type="curve"/>
      <point x="792" y="0" type="line"/>
      <point x="792" y="94"/>
      <point x="792" y="162"/>
      <point x="792" y="278" type="curve"/>
      <point x="792" y="596" type="line"/>
      <point x="792" y="702"/>
      <point x="792" y="810"/>
      <point x="792" y="924" type="curve"/>
      <point x="460" y="924" type="line"/>
      <point x="418" y="872"/>
      <point x="376" y="818"/>
      <point x="334" y="766" type="curve"/>
      <point x="222" y="620" type="line"/>
      <point x="162" y="546"/>
      <point x="78" y="438"/>
      <point x="30" y="376" type="curve"/>
      <point x="30" y="156" type="line"/>
      <point x="566" y="156" type="line"/>
      <point x="664" y="156"/>
      <point x="804" y="156"/>
      <point x="892" y="156" type="curve"/>
      <point x="892" y="448" type="line"/>
      <point x="804" y="448"/>
      <point x="664" y="448"/>
      <point x="566" y="448" type="curve"/>
      <point x="540" y="408" type="line"/>
      <point x="290" y="408" type="line"/>
      <point x="298" y="392" type="line"/>
      <point x="338" y="442"/>
      <point x="378" y="496"/>
      <point x="416" y="544" type="curve"/>
      <point x="566" y="734" type="line"/>
      <point x="612" y="792"/>
      <point x="656" y="850"/>
      <point x="704" y="910" type="curve"/>
      <point x="486" y="788" type="line"/>
      <point x="486" y="700"/>
      <point x="486" y="612"/>
      <point x="486" y="524" type="curve"/>
      <point x="486" y="318" type="line"/>
      <point x="444" y="278" type="line"/>
      <point x="444" y="162"/>
      <point x="444" y="94"/>
    </contour>
  </outline>
</glyph>
<glyph name="hookabovecomb.case" format="2">
  <anchor x="600" y="1004" name="_top"/>
  <anchor x="600" y="1586" name="top"/>
  <outline>
    <contour>
      <point x="438" y="1108" type="line"/>
      <point x="678" y="1108" type="line"/>
      <point x="678" y="1132" type="line"/>
      <point x="850" y="1144"/>
      <point x="956" y="1226"/>
      <point x="956" y="1368" type="curve" smooth="yes"/>
      <point x="956" y="1540"/>
      <point x="790" y="1586"/>
      <point x="622" y="1586" type="curve" smooth="yes"/>
      <point x="466" y="1586"/>
      <point x="348" y="1552"/>
      <point x="290" y="1530" type="curve"/>
      <point x="308" y="1288" type="line"/>
      <point x="388" y="1320"/>
      <point x="466" y="1346"/>
      <point x="544" y="1346" type="curve"/>
      <point x="590" y="1346"/>
      <point x="618" y="1330"/>
      <point x="618" y="1300" type="curve" smooth="yes"/>
      <point x="618" y="1252"/>
      <point x="530" y="1216"/>
      <point x="438" y="1216" type="curve"/>
    </contour>
  </outline>
</glyph>
<glyph name="macroncomb.case" format="2">
  <anchor x="600" y="1004" name="_top"/>
  <anchor x="600" y="1434" name="top"/>
  <outline>
    <contour>
      <point x="228" y="1126" type="line"/>
      <point x="340" y="1126"/>
      <point x="464" y="1126"/>
      <point x="600" y="1126" type="curve"/>
      <point x="736" y="1126"/>
      <point x="860" y="1126"/>
      <point x="972" y="1126" type="curve"/>
      <point x="972" y="1446" type="line"/>
      <point x="860" y="1446"/>
      <point x="736" y="1446"/>
      <point x="600" y="1446" type="curve"/>
      <point x="464" y="1446"/>
      <point x="340" y="1446"/>
      <point x="228" y="1446" type="curve"/>
    </contour>
  </outline>
</glyph>
<glyph name="three.dnom" format="2">
  <advance width="888"/>
  <outline>
    <contour>
      <point x="422" y="-30" type="curve" smooth="yes"/>
      <point x="712" y="-30"/>
      <point x="842" y="86"/>
      <point x="842" y="262" type="curve" smooth="yes"/>
      <point x="842" y="404"/>
      <point x="746" y="472"/>
      <point x="642" y="490" type="curve"/>
      <point x="642" y="512" type="line"/>
      <point x="744" y="530"/>
      <point x="820" y="588"/>
      <point x="820" y="696" type="curve" smooth="yes"/>
      <point x="820" y="852"/>
      <point x="686" y="954"/>
      <point x="428" y="954" type="curve" smooth="yes"/>
      <point x="284" y="954"/>
      <point x="152" y="922"/>
      <point x="62" y="894" type="curve"/>
      <point x="88" y="592" type="line"/>
      <point x="174" y="636"/>
      <point x="270" y="678"/>
      <point x="360" y="678" type="curve"/>
      <point x="424" y="678"/>
      <point x="462" y="658"/>
      <point x="462" y="620" type="curve" smooth="yes"/>
      <point x="462" y="578"/>
      <point x="426" y="562"/>
      <point x="354" y="562" type="curve"/>
      <point x="308" y="562"/>
      <point x="268" y="562"/>
      <point x="226" y="562" type="curve"/>
      <point x="226" y="362" type="line"/>
      <point x="274" y="362"/>
      <point x="326" y="362"/>
      <point x="376" y="362" type="curve"/>
      <point x="450" y="362"/>
      <point x="482" y="344"/>
      <point x="482" y="308" type="curve" smooth="yes"/>
      <point x="482" y="268"/>
      <point x="454" y="246"/>
      <point x="378" y="246" type="curve"/>
      <point x="282" y="246"/>
      <point x="176" y="284"/>
      <point x="70" y="332" type="curve"/>
      <point x="48" y="34" type="line"/>
      <point x="128" y="0"/>
      <point x="268" y="-30"/>
    </contour>
  </outline>
</glyph>
<glyph name="tildecomb.case" format="2">
  <anchor x="600" y="1004" name="_top"/>
  <anchor x="600" y="1494" name="top"/>
  <outline>
    <contour>
      <point x="786" y="1078" type="curve" smooth="yes"/>
      <point x="930" y="1078"/>
      <point x="1026" y="1220"/>
      <point x="1026" y="1474" type="curve"/>
      <point x="810" y="1474" type="line"/>
      <point x="800" y="1440"/>
      <point x="782" y="1380"/>
      <point x="740" y="1380" type="curve"/>
      <point x="678" y="1380"/>
      <point x="598" y="1516"/>
      <point x="430" y="1516" type="curve" smooth="yes"/>
      <point x="276" y="1516"/>
      <point x="174" y="1374"/>
      <point x="174" y="1120" type="curve"/>
      <point x="390" y="1120" type="line"/>
      <point x="402" y="1154"/>
      <point x="424" y="1214"/>
      <point x="470" y="1214" type="curve"/>
      <point x="524" y="1214"/>
      <point x="612" y="1078"/>
    </contour>
  </outline>
</glyph>
